<svg version="1.1" xmlns="http://www.w3.org/2000/svg" xmlns:xlink="http://www.w3.org/1999/xlink" width="109.7689" height="93.55651" viewBox="0,0,109.7689,93.55651"><defs><linearGradient x1="180" y1="290.16667" x2="180" y2="349.83333" gradientUnits="userSpaceOnUse" id="color-1"><stop offset="0" stop-color="#565656"/><stop offset="1" stop-color="#ffffff"/></linearGradient></defs><g transform="translate(-125.30615,-292.75431)"><g stroke-miterlimit="10"><path d="" fill="url(#color-1)" stroke="none" stroke-width="0"/><path d="M135.2943,345.74569v-51.49138h89.41141v51.49138z" fill-opacity="0.01176" fill="#ffffff" stroke="#ffffff" stroke-width="3"/><path d="M140.47837,309.78282v-9.5798h9.38021v9.5798z" fill-opacity="0.01176" fill="#ffffff" stroke="#ffffff" stroke-width="3"/><path d="M154.04974,309.78282v-9.5798h9.38021v9.5798z" fill-opacity="0.01176" fill="#ffffff" stroke="#ffffff" stroke-width="3"/><path d="M167.42153,309.78282v-9.5798h9.38021v9.5798z" fill-opacity="0.01176" fill="#ffffff" stroke="#ffffff" stroke-width="3"/><path d="M180.99291,309.78282v-9.5798h9.38021v9.5798z" fill-opacity="0.01176" fill="#ffffff" stroke="#ffffff" stroke-width="3"/><path d="M194.56427,309.78282v-9.5798h9.38021v9.5798z" fill-opacity="0.01176" fill="#ffffff" stroke="#ffffff" stroke-width="3"/><path d="M208.13565,309.78282v-9.5798h9.38021v9.5798z" fill-opacity="0.01176" fill="#ffffff" stroke="#ffffff" stroke-width="3"/><path d="M143.87121,324.15249v-9.5798h9.38021v9.5798z" fill-opacity="0.01176" fill="#ffffff" stroke="#ffffff" stroke-width="3"/><path d="M157.44258,324.15249v-9.5798h9.38021v9.5798z" fill-opacity="0.01176" fill="#ffffff" stroke="#ffffff" stroke-width="3"/><path d="M170.81438,324.15249v-9.5798h9.38021v9.5798z" fill-opacity="0.01176" fill="#ffffff" stroke="#ffffff" stroke-width="3"/><path d="M184.38574,324.15249v-9.5798h9.38021v9.5798z" fill-opacity="0.01176" fill="#ffffff" stroke="#ffffff" stroke-width="3"/><path d="M197.95712,324.15249v-9.5798h9.38021v9.5798z" fill-opacity="0.01176" fill="#ffffff" stroke="#ffffff" stroke-width="3"/><path d="M211.52849,324.15249v-9.5798h9.38021v9.5798z" fill-opacity="0.01176" fill="#ffffff" stroke="#ffffff" stroke-width="3"/><path d="M139.48047,338.12302v-9.5798h9.38021v9.5798z" fill-opacity="0.01176" fill="#ffffff" stroke="#ffffff" stroke-width="3"/><path d="M153.05184,338.12302v-9.5798h9.38021v9.5798z" fill-opacity="0.01176" fill="#ffffff" stroke="#ffffff" stroke-width="3"/><path d="M166.42363,338.12302v-9.5798h9.38021v9.5798z" fill-opacity="0.01176" fill="#ffffff" stroke="#ffffff" stroke-width="3"/><path d="M179.99501,338.12302v-9.5798h9.38021v9.5798z" fill-opacity="0.01176" fill="#ffffff" stroke="#ffffff" stroke-width="3"/><path d="M193.56637,338.12302v-9.5798h9.38021v9.5798z" fill-opacity="0.01176" fill="#ffffff" stroke="#ffffff" stroke-width="3"/><path d="M207.13775,338.12302v-9.5798h9.38021v9.5798z" fill-opacity="0.01176" fill="#ffffff" stroke="#ffffff" stroke-width="3"/><text transform="translate(138.59419,365.13555) scale(0.38942,0.38942)" font-size="40" xml:space="preserve" fill="#ffffff" stroke="none" stroke-width="1" font-family="&quot;OpenSans_Condensed-Regular&quot;, Sans Serif" font-weight="normal" text-anchor="start"><tspan x="0" dy="0">Show keyboard</tspan></text><text transform="translate(125.50086,381.44313) scale(0.38942,0.38942)" font-size="40" xml:space="preserve" fill="#ffffff" stroke="none" stroke-width="1" font-family="&quot;OpenSans_Condensed-Regular&quot;, Sans Serif" font-weight="normal" text-anchor="start"><tspan x="0" dy="0">Tunjukkan keyboard</tspan></text></g></g></svg>