<svg version="1.1" xmlns="http://www.w3.org/2000/svg" xmlns:xlink="http://www.w3.org/1999/xlink" width="330.99615" height="531.17249" viewBox="0,0,330.99615,531.17249"><g transform="translate(-15.03016,-81.60624)"><g stroke-miterlimit="10"><path d="M33,515.35441v-35.074h294v35.074z" fill="#383838" fill-rule="nonzero" stroke="none" stroke-width="0" stroke-linecap="butt" stroke-linejoin="miter"/><path d="M33,443.72498v-35.074h294v35.074z" fill="#383838" fill-rule="nonzero" stroke="none" stroke-width="0" stroke-linecap="butt" stroke-linejoin="miter"/><g fill-rule="evenodd"><path d="" fill="#ffab19" stroke="#001026" stroke-width="1.2" stroke-linecap="round" stroke-linejoin="round"/><path d="" fill="#ffffff" stroke="none" stroke-width="1" stroke-linecap="butt" stroke-linejoin="miter"/></g><path d="" fill="#ffab19" fill-rule="evenodd" stroke="#001026" stroke-width="1.2" stroke-linecap="round" stroke-linejoin="round"/><path d="" fill="#ffab19" fill-rule="evenodd" stroke="#001026" stroke-width="1.2" stroke-linecap="round" stroke-linejoin="round"/><g fill-rule="evenodd"><path d="" fill="#ffab19" stroke="#001026" stroke-width="1.2" stroke-linecap="round" stroke-linejoin="round"/><path d="" fill="#ffffff" stroke="none" stroke-width="1" stroke-linecap="butt" stroke-linejoin="miter"/></g><path d="" fill="#ffab19" fill-rule="evenodd" stroke="#001026" stroke-width="1.2" stroke-linecap="round" stroke-linejoin="round"/><g><path d="" fill="#ffab19" fill-rule="nonzero" stroke="#001026" stroke-width="1.2" stroke-linecap="butt" stroke-linejoin="miter"/><path d="" fill="#ffab19" fill-rule="nonzero" stroke="#001026" stroke-width="1.2" stroke-linecap="butt" stroke-linejoin="miter"/><path d="" fill="#ffab19" fill-rule="nonzero" stroke="#001026" stroke-width="1.2" stroke-linecap="butt" stroke-linejoin="miter"/><path d="" fill="#ffab19" fill-rule="nonzero" stroke="#001026" stroke-width="1.2" stroke-linecap="butt" stroke-linejoin="miter"/><path d="" fill="#ffffff" fill-rule="nonzero" stroke="none" stroke-width="1" stroke-linecap="butt" stroke-linejoin="miter"/><path d="" fill="#ffffff" fill-rule="nonzero" stroke="none" stroke-width="1" stroke-linecap="butt" stroke-linejoin="miter"/><path d="" fill="#ffffff" fill-rule="evenodd" stroke="#001026" stroke-width="1.2" stroke-linecap="round" stroke-linejoin="round"/><path d="" fill="#001026" fill-rule="evenodd" stroke="#001026" stroke-width="1.2" stroke-linecap="round" stroke-linejoin="round"/><g fill-rule="evenodd"><path d="" fill="#ffffff" stroke="#001026" stroke-width="1.2" stroke-linecap="round" stroke-linejoin="round"/><path d="" fill="#001026" stroke="none" stroke-width="1" stroke-linecap="butt" stroke-linejoin="miter"/></g><g fill-rule="evenodd"><path d="" fill="#ffffff" stroke="#001026" stroke-width="1.2" stroke-linecap="round" stroke-linejoin="round"/><path d="" fill="#001026" stroke="none" stroke-width="1" stroke-linecap="butt" stroke-linejoin="miter"/></g></g><path d="" fill="#ffffff" fill-rule="nonzero" stroke="none" stroke-width="0.5" stroke-linecap="butt" stroke-linejoin="miter"/><path d="" fill="#ffffff" fill-rule="nonzero" stroke="none" stroke-width="0.5" stroke-linecap="butt" stroke-linejoin="miter"/><path d="" fill="#ffffff" fill-rule="nonzero" stroke="none" stroke-width="0.5" stroke-linecap="butt" stroke-linejoin="miter"/><path d="" fill="#ffffff" fill-rule="nonzero" stroke="none" stroke-width="0.5" stroke-linecap="butt" stroke-linejoin="miter"/><path d="" fill="#ffffff" fill-rule="nonzero" stroke="none" stroke-width="0.5" stroke-linecap="butt" stroke-linejoin="miter"/><text transform="translate(272.58622,586.81891) scale(1.46587,1.46587)" font-size="40" xml:space="preserve" fill="#ffffff" fill-rule="nonzero" stroke="none" stroke-width="1" stroke-linecap="butt" stroke-linejoin="miter" font-family="&quot;OpenSans-Bold&quot;, Sans Serif" font-weight="normal" text-anchor="start"><tspan x="0" dy="0">KS</tspan></text><text transform="translate(276.5779,606.34424) scale(0.51476,0.51476)" font-size="40" xml:space="preserve" fill="#ff0000" fill-rule="nonzero" stroke="none" stroke-width="1" stroke-linecap="butt" stroke-linejoin="miter" font-family="&quot;OpenSans_Condensed-Regular&quot;, Sans Serif" font-weight="normal" text-anchor="start"><tspan x="0" dy="0">Software</tspan></text><path d="M330.45741,151.60338c0.35356,-0.30608 0.84036,-0.51679 1.51061,-0.51679c2.44875,0 2.44875,2.81257 2.44875,2.81257l-1.9685,3.03763c-2.57748,0.56593 -3.63578,1.09563 -6.41193,0.25576c-3.17981,-0.962 -6.76821,-4.60842 -10.23916,-4.40123c-0.8672,0.05177 -1.70888,0.26622 -2.53783,0.56237l0.11048,0.14502l-1.93909,1.9488c-0.43189,0.43864 -0.9996,0.70485 -1.62144,0.70485c-1.35241,0 -2.44873,-1.25922 -2.44873,-2.81257c0,-0.54584 0.13537,-1.05538 0.36966,-1.4867l1.35853,-2.60062c2.79397,-8.35991 0.06312,-22.47717 -10.06737,-21.1086c-2.7768,0.37513 -5.31485,3.7531 -7.32331,5.77711c0,0 -0.25862,0.25992 -0.66689,0.47374l-0.07984,2.84278c0.85371,4.79398 -0.55534,10.92552 -0.57136,15.83376l0.00002,0.26852c0,0 0,2.81257 -2.44875,2.81257c-2.44875,0 -2.44873,-2.81257 -2.44873,-2.81257l0.00001,-0.29086c0.00701,-1.92286 0.06513,-3.83921 0.14486,-5.75403c-2.58389,3.62464 -5.9801,6.10156 -10.11341,4.88605c-3.24272,-0.95362 -5.18693,-2.99815 -6.50803,-5.69198c-1.01739,3.34684 -2.71892,6.33669 -5.83442,9.11274c-1.60411,1.42934 -3.28296,2.92969 -5.23259,3.58019c-4.16856,1.39086 -9.45937,-3.90312 -10.59648,-7.88401c-0.11163,-0.39081 -0.19469,-0.78132 -0.25118,-1.17105c-0.28715,0.18742 -0.57615,0.36238 -0.86693,0.52301c-2.16467,1.19589 -4.65713,4.24092 -6.75223,2.89137c-2.06439,-1.32978 -0.9409,-5.33421 -1.22911,-8.03253c-0.60501,-5.66418 -0.41203,-17.27545 -7.88328,-17.32709c-3.9914,-0.02758 -8.51734,5.51445 -8.91267,9.86933c-0.02818,0.31034 -0.04571,0.62597 -0.05448,0.946c0.32223,2.03305 0.40383,4.14227 0.40405,6.25556c0.14902,1.80152 0.21747,3.56436 -0.07563,5.14963c-0.00539,0.42234 -0.00879,0.8424 -0.00879,1.25958v3.0765c0,1.55334 -1.09634,2.81258 -2.44873,2.81258c-1.35241,0 -2.44874,-1.25924 -2.44874,-2.81258v-4.11005c-0.32719,-0.72152 -0.24471,-8.79029 -0.2435,-9.31466c0.00063,-0.26932 0.00603,-0.53954 0.01617,-0.81034c-0.35931,-2.96688 -1.15126,-5.80272 -2.84076,-8.27366c-2.83745,-4.14988 -10.14964,-0.35659 -11.71184,3.75709c-0.35928,0.94609 -0.53982,5.83661 -0.5526,5.95886c-0.11378,1.08788 -0.2716,2.03921 -0.46772,2.93197v5.10621c0,1.55334 -1.09634,2.81258 -2.44874,2.81258c-1.35241,0 -2.44874,-1.25924 -2.44874,-2.81258c0,-0.55936 0,-4.75459 0,-5.31394c0,-0.09461 0,-0.18923 0,-0.28385c-0.11577,-0.37875 -0.08671,-0.77065 0,-1.16894c0,-1.2012 0,-2.40244 0,-3.60364c-1.91977,2.05575 -4.00162,3.76997 -5.79901,6.07875c-1.97823,2.54104 -4.02156,5.00637 -6.08665,7.44596c0.14988,5.69421 -0.35188,11.39433 -0.93911,17.29604c-0.43412,4.36303 -0.58195,8.84561 -1.42474,13.13884c-1.13207,5.76673 -2.54994,12.98541 -7.70204,15.98477c-2.13973,1.24568 -6.93769,0.9763 -9.5011,0.95183c-1.3228,-0.98298 -2.88243,-1.63789 -3.96843,-2.9489c-5.183,-6.25676 -4.19269,-14.98421 -0.61138,-21.89553c2.19182,-4.22985 5.47092,-8.02101 8.33498,-11.64638c1.99547,-2.5259 4.03594,-4.99171 6.09037,-7.43732c-1.55267,0.76386 -3.38762,1.12474 -5.50844,0.9555c-6.05064,-0.48285 -8.94099,-5.6132 -9.11745,-11.26362c-1.31587,1.28898 -2.63983,2.56987 -3.9292,3.90696c-1.26518,1.31201 -2.26445,3.02519 -3.73978,4.0058c-1.55012,1.03031 -3.53307,2.84076 -5.11719,1.8811c-1.51654,-0.91872 -0.93317,-3.79603 -1.24148,-5.73321c-0.79846,-5.01683 -0.50605,-17.59846 -7.16375,-17.95744c-9.00747,-0.48567 -5.51188,12.76404 -6.68924,18.41484v5.62512c0,1.55334 -1.09634,2.81257 -2.44873,2.81257c-1.34412,0 -2.43531,-1.24386 -2.44861,-2.78407l-0.03039,-3.01254c-0.01011,-0.26497 -0.02401,-0.54649 -0.04076,-0.84218c-3.48039,4.83865 -8.44757,7.9134 -13.44396,3.92396c-1.5582,-1.24416 -2.76469,-2.8359 -3.67374,-4.62936c-3.64538,5.7785 -11.29851,11.48174 -16.37783,3.75299c-1.19704,-1.82141 -1.81517,-3.73385 -2.00011,-5.66942c-1.88252,0.751 -3.93131,1.2042 -6.20671,1.26776c-4.24587,0.11862 -5.50715,1.0716 -8.67763,-1.84471c-2.28791,-2.10449 -3.92394,-5.25414 -5.26814,-8.1562c-1.34308,-2.89962 -2.13295,-6.13314 -2.7015,-9.35199c-0.07373,-1.4222 -0.13929,-2.83875 -0.19457,-4.25089c-2.262,1.35062 -4.61547,2.603 -6.70736,3.02955c-0.84035,0.17135 -5.98075,-0.62981 -7.16781,-0.78133c-0.16773,7.5241 -0.93032,14.92201 -3.43363,21.83306c-1.75169,3.89576 -6.79579,11.13116 -11.60928,9.10287c-7.28097,-3.06802 -11.29041,-17.5895 -7.89183,-25.26471c3.29332,-7.43751 10.85988,-10.61402 17.98122,-11.26083c-0.07271,-4.1492 -0.23463,-8.28535 -0.23343,-12.31236c0.0015,-5.02633 0.24925,-9.97556 0.49002,-14.9944c0.01637,-0.34111 0.02368,-0.68442 0.03076,-1.02808c-1.58846,2.26185 -4.43555,4.11786 -5.83211,5.35493c0,0 -1.94093,1.71485 -3.43396,-0.51445c-1.49302,-2.2293 0.44792,-3.94417 0.44792,-3.94417c2.03391,-1.79202 3.85259,-3.88515 5.77861,-5.8281c1.56404,-1.57781 2.78975,-4.80607 4.85548,-4.51084c1.95648,0.27962 2.64764,3.5169 3.25755,5.67032c0.96596,3.41056 -0.20761,7.16988 -0.39652,10.7498c-0.36567,6.92939 -0.03305,14.13347 0.02154,21.30488c0.01711,0.00121 0.03422,0.00244 0.05132,0.00367c2.09964,0.15167 4.19806,1.32194 6.26535,0.87382c2.26582,-0.49116 4.94667,-2.2038 7.35522,-3.72168c-0.10719,-7.40187 0.15848,-14.73396 1.10505,-22.18468c0.52816,-4.15724 1.99573,-9.61231 5.28465,-12.03852c7.12009,-5.25245 13.79783,7.33729 14.18415,13.89591c0.63296,10.74632 -8.7667,17.89432 -15.25304,23.46525c-0.11496,0.06293 -0.23133,0.1277 -0.34904,0.19414c0.05827,2.13369 0.14434,4.27822 0.25131,6.43997c0.43805,2.56285 1.09597,5.12592 2.16856,7.42888c1.22106,2.62177 2.11178,4.41083 3.98495,6.38724c1.67975,1.77232 3.03987,0.72705 5.49637,0.63082c2.71575,-0.10641 5.05716,-0.91585 7.16355,-2.18138c1.16209,-3.64404 3.3116,-7.0923 5.423,-9.86734c1.16532,-1.53163 4.69903,-5.46607 6.30772,-5.78584c0.19262,-0.03829 0.38555,-0.06629 0.57875,-0.08529l-0.00852,-0.07823l3.85773,-0.55385c0.11177,-0.01795 0.22597,-0.02723 0.34204,-0.02723c1.35239,0 2.44875,1.25922 2.44875,2.81257c0,0.34718 -0.05475,0.67966 -0.15493,0.98668c0.63518,0.46772 1.06993,1.26313 1.12337,2.17852l0.24184,3.61114l-0.02011,0.00177c0.00869,0.03525 0.0172,0.07059 0.02553,0.10601c0.94846,4.03589 -0.70258,7.9361 1.36923,11.82888c0.21197,0.39826 2.99949,4.81549 4.54878,4.49067c2.46661,-0.51712 5.92512,-4.97442 6.99982,-7.45194c0.65339,-1.50626 0.9808,-2.61279 1.18115,-3.71372c0.04754,-0.73626 0.12845,-1.41726 0.25339,-2.01484c0.00437,-0.0209 0.00877,-0.04179 0.01322,-0.06266l-0.01121,-0.00061l0.23228,-5.60273c0.05374,-1.49874 1.12858,-2.6948 2.44664,-2.6948c0.07693,0 0.15301,0.00407 0.22814,0.01205c2.92194,-4.07727 8.17909,-5.88521 12.44939,-3.68778c4.78344,2.46147 6.26285,7.7088 7.42442,13.17223c0.41062,1.93136 0.71103,3.89481 0.94594,5.86452c0.03593,0.30122 0.06375,0.67529 0.07473,1.07658c0.65044,-0.66117 1.35155,-1.27139 1.99242,-1.93833c2.94602,-3.06587 6.06933,-5.83279 8.88389,-9.05691c0.39054,-0.33739 0.77939,-0.67741 1.16655,-1.02002c0.04275,-0.06421 0.08597,-0.12804 0.12963,-0.19144c1.1393,-1.65386 2.02391,-3.76139 3.65201,-4.73648c0.10613,-0.06358 0.21352,-0.12309 0.32199,-0.1789c-0.01774,-0.13656 -0.02693,-0.27632 -0.02693,-0.41854c0,-1.55334 1.09632,-2.81257 2.44873,-2.81257h2.92204c5.8988,-2.40343 9.21475,7.96648 10.38202,12.63601c0.46096,1.84404 0.81289,3.67378 1.07402,5.49553c1.01699,-1.24043 2.0259,-2.49064 3.02285,-3.75563c2.31614,-2.9389 5.05286,-4.88949 7.31064,-7.83828l0.27973,-0.53061c0,0 0.71279,-1.22802 1.88016,-1.31186c0,-0.25463 0,-0.50924 0,-0.76387c0,0 -0.00001,-2.81257 2.44874,-2.81257c0.82648,0 1.37402,0.32039 1.73676,0.74491c4.69198,-5.01389 12.76358,-6.65591 17.17271,-0.87465c0.54644,0.71649 1.0329,1.5281 1.46383,2.39578c2.34066,-4.79891 6.33695,-8.39499 11.63043,-8.41644c8.59398,-0.03483 11.9158,11.21378 12.56073,19.05449c0.10625,1.29176 0.23036,2.61991 0.01023,3.89256c-0.19544,1.12999 -2.05643,2.50334 -1.22912,3.15475c0.814,0.64094 0.9832,-2.00854 1.70844,-2.77731c2.67309,-2.83345 6.20665,-5.46293 8.97399,-8.24108c0.13397,-0.11091 0.268,-0.22127 0.40213,-0.33111c1.94842,-2.02839 3.99777,-3.7491 5.51818,-5.00884c0.74244,-0.61514 1.41508,-1.42201 2.28478,-1.75023c2.08723,-0.78771 4.30133,-1.03134 6.45198,-1.54702l-0.35653,0.82293c0.34414,0 0.68831,0 1.03245,0l2.92073,3.23284c0,0 0.53215,1.22243 0.11262,2.38908c0.13267,0.27601 0.25979,0.5556 0.37998,0.83959c0.37702,0.89082 0.23768,1.96685 0.45703,2.92475c0.59746,2.60911 2.41401,9.20648 6.13118,7.25004c1.19921,-0.63118 2.33334,-1.43787 3.39076,-2.34373c0.74008,-0.634 1.43804,-1.37175 1.96386,-2.24338c1.71454,-2.84221 1.90893,-4.18651 2.70942,-7.16944l0.22616,-3.37688c0.08549,-1.46426 1.14666,-2.62158 2.44318,-2.62158c0.23075,0 0.45408,0.03667 0.66575,0.10519c2.52108,-2.59287 5.51051,-5.75553 8.86742,-6.21785c10.07917,-1.38811 16.83189,8.78213 17.22734,19.46248c0.08301,2.24175 -0.09745,3.73366 -0.4626,5.16459c0.18473,-0.01967 0.36832,-0.03623 0.54984,-0.05057c5.68632,-0.44913 9.42096,5.04015 14.94789,4.42747zM265.00478,135.45592c0,0 -0.28783,0 -0.66614,-0.11334c-2.5595,1.9608 -5.11951,3.82038 -7.63683,5.84182c-1.16499,1.25955 -2.24797,2.63229 -3.27603,4.23619c-0.53049,0.82763 -1.75745,3.06469 -1.36555,4.36748c1.47794,4.91325 5.54304,3.87771 8.03662,1.43525c4.77984,-4.68188 5.04882,-8.69207 5.66532,-15.37118l0.15136,-0.39619c-0.30291,0 -0.60582,0 -0.90873,0zM170.90365,135.55211c-1.5195,1.47749 -3.06072,2.92746 -4.63385,4.32941c-0.25549,0.38104 -0.47904,0.78433 -0.64988,1.22444c-1.74664,4.49961 -1.29034,10.3005 3.86974,10.83368c8.49968,0.87824 8.4288,-14.09309 3.02731,-18.23711l-1.53986,1.76866l-0.03,-0.03445zM96.30408,147.25229c-0.11138,0.71971 -0.15318,1.43352 -0.11142,2.1323c0.25221,4.22134 4.5692,5.45052 6.99324,2.8793c3.52044,-3.7342 4.09212,-7.58352 4.18076,-12.43003c-0.04331,-0.60561 -0.05367,-1.20546 0.0153,-1.78689c0.00035,-0.21438 0.00036,-0.4307 0.00023,-0.64902v-1.85568c-3.62413,4.28732 -7.00267,8.66879 -11.0781,11.71004zM73.20828,117.93647c5.41425,-4.5633 12.78374,-11.03521 9.9868,-18.96422c-1.11163,-3.15133 -1.80708,-6.07075 -4.87877,-7.17491c-2.55071,-0.91689 -3.83704,6.50351 -4.05202,8.27509c-0.73001,6.01606 -1.03129,11.92398 -1.05598,17.86404zM49.68279,129.90435c-4.4833,0.44571 -9.01851,2.1101 -12.10581,5.80031c-4.04776,4.83825 -1.94911,16.64455 3.22879,19.66778c0.36686,0.21419 0.80742,-0.23043 1.16893,-0.4563c2.31602,-1.44697 3.64221,-2.85921 4.75396,-5.54364c2.2306,-6.13824 2.85842,-12.7635 2.95412,-19.46815zM179.36657,158.83914c-4.25616,4.99015 -8.46075,10.03664 -12.23781,15.57239c-2.76462,4.05189 -6.47975,9.94161 -5.07196,15.67343c0.66233,2.6966 2.26035,3.62661 3.97786,5.02396c1.10066,-0.0949 5.74744,-0.48088 5.97507,-0.6022c2.18252,-1.16335 3.26107,-4.68609 3.90681,-6.97795c1.27093,-4.51079 1.65386,-8.83865 2.09585,-13.51775c0.4536,-4.80183 1.09183,-9.97414 1.35417,-15.17188z" fill="#ffffff" fill-rule="nonzero" stroke="none" stroke-width="0.5" stroke-linecap="butt" stroke-linejoin="miter"/><text transform="translate(15.1639,603.37687) scale(0.26748,0.26748)" font-size="40" xml:space="preserve" fill="#ffffff" fill-rule="nonzero" stroke="none" stroke-width="1" stroke-linecap="butt" stroke-linejoin="miter" font-family="&quot;OpenSans-Bold&quot;, Sans Serif" font-weight="normal" text-anchor="start"><tspan x="0" dy="0">Song - Electrical Fuse by DJ MUSIX</tspan></text><text transform="translate(37.5,489.04891) scale(0.25333,0.25333)" font-size="40" xml:space="preserve" fill="#ffffff" fill-rule="nonzero" stroke="none" stroke-width="1" stroke-linecap="butt" stroke-linejoin="miter" font-family="Pixel" font-weight="normal" text-anchor="start"><tspan x="0" dy="0">ESC to go back, Arrow key to navigate, ENTER</tspan><tspan x="0" dy="46.15px">to select and use ALPHABET on keyboard to type.</tspan><tspan x="0" dy="46.15px">Keep cursor out of button(s) to choose by keyboard.</tspan></text><text transform="translate(33.72499,399.4198) scale(0.45165,0.45165)" font-size="40" xml:space="preserve" fill="#ffffff" fill-rule="nonzero" stroke="none" stroke-width="1" stroke-linecap="butt" stroke-linejoin="miter" font-family="Pixel" font-weight="normal" text-anchor="start"><tspan x="0" dy="0">(i) FAQ</tspan></text><text transform="translate(37.5,435.05625) scale(0.5,0.5)" font-size="40" xml:space="preserve" fill="#ffffff" fill-rule="nonzero" stroke="none" stroke-width="1" stroke-linecap="butt" stroke-linejoin="miter" font-family="Pixel" font-weight="normal" text-anchor="start"><tspan x="0" dy="0">Guess one letter at a time!</tspan></text><text transform="translate(33.72499,469.4198) scale(0.45165,0.45165)" font-size="40" xml:space="preserve" fill="#ffffff" fill-rule="nonzero" stroke="none" stroke-width="1" stroke-linecap="butt" stroke-linejoin="miter" font-family="Pixel" font-weight="normal" text-anchor="start"><tspan x="0" dy="0">(i) Physical Keyboard Support</tspan></text><text transform="translate(104.93637,107.05624) scale(0.5,0.5)" font-size="40" xml:space="preserve" fill="#ffffff" fill-rule="nonzero" stroke="none" stroke-width="1" stroke-linecap="butt" stroke-linejoin="miter" font-family="Pixel" font-weight="normal" text-anchor="start"><tspan x="0" dy="0">KenzieShane's</tspan></text></g></g></svg>