<svg version="1.1" xmlns="http://www.w3.org/2000/svg" xmlns:xlink="http://www.w3.org/1999/xlink" width="625.51171" height="524.02839" viewBox="0,0,625.51171,524.02839"><defs><linearGradient x1="220.02556" y1="362.84728" x2="220.02556" y2="465.27824" gradientUnits="userSpaceOnUse" id="color-1"><stop offset="0" stop-color="#000000" stop-opacity="0"/><stop offset="1" stop-color="#000000"/></linearGradient><linearGradient x1="172.9244" y1="14.56725" x2="172.9244" y2="53.63699" gradientUnits="userSpaceOnUse" id="color-2"><stop offset="0" stop-color="#ffffff"/><stop offset="1" stop-color="#c1c1c1"/></linearGradient></defs><g transform="translate(105.70488,-14.31726)"><g stroke-miterlimit="10"><g fill="#333333" stroke="none" stroke-width="0.5"><path d="M189.01015,357.36218c3.35728,5.43359 7.98589,10.09262 11.17251,15.65114c2.9651,5.1721 6.36076,10.44485 9.00311,15.7669c1.0539,2.1227 1.2066,4.61745 2.25592,6.74243c0.81261,1.64564 2.02027,3.07513 2.83811,4.71817c1.1804,2.37143 1.51276,5.1065 2.70231,7.47336c1.70217,3.38684 3.42494,6.30719 4.88103,9.61246c-0.04689,-0.48808 -0.0912,-0.97667 -0.13242,-1.4659c-1.42999,-16.97255 -2.37318,-33.93665 -4.0542,-50.84175c-9.34205,-2.64813 -17.56814,-7.58427 -25.82101,-12.74232c-1.57412,-0.98383 -2.88149,-2.35658 -4.45505,-3.34129c-0.80414,-0.50322 -1.74062,-0.80178 -2.62953,-1.16527c1.07914,2.70166 2.67503,7.06048 4.23922,9.59205zM379.32957,304.81679c5.15014,7.07784 10.32876,14.01725 15.80252,20.86362c3.22185,4.02976 5.21656,7.06345 9.54343,10.00746c4.0461,5.9194 8.25652,11.51958 12.00244,17.66258c4.31631,7.07841 7.70456,14.29991 13.61408,20.20533l0.87061,0.34282c3.69201,-5.52551 6.85335,-11.43659 9.02835,-17.16117c0.71921,-1.89294 1.5184,-7.50204 2.32447,-9.13973c0.81975,-1.66546 2.49956,-2.80059 3.34129,-4.45504c1.32109,-2.59665 1.26756,-5.69074 2.0683,-8.49193c0.61428,-2.14893 1.78358,-4.14575 2.15244,-6.3501c0.66243,-3.95881 -0.03596,-8.94377 -0.03596,-12.91913c0,-2.22753 -0.23038,-4.467 0,-6.68258c0.06178,-0.59414 0.82822,-1.19821 0.52557,-1.71322c-0.25813,-0.43926 -1.019,0.00171 -1.52847,0.00662c-2.07879,0.02001 -4.15767,0.03596 -6.23656,0.03596c-3.55423,0 -8.36287,0.85725 -11.77734,-0.07448c-2.40328,-0.6558 -4.66641,-2.22169 -7.15662,-2.15304l-3.47275,-1.40772c0,0 -2.49045,-1.24523 -1.24523,-3.73568c1.24523,-2.49045 3.73568,-1.24523 3.73568,-1.24523l0.9823,0.81981c1.327,0.02484 2.70059,-0.27491 3.98101,0.07448c1.60173,0.43708 2.86514,1.74921 4.45505,2.22753c5.34944,1.60935 12.15337,-1.42809 17.62648,-0.03854c1.81491,0.46078 3.99474,0.76374 5.1541,2.23416c1.44187,1.82872 0.52557,9.21752 0.52557,11.65193c0,4.30438 0.67514,9.53154 -0.03595,13.81115c-0.09682,0.58267 -2.0703,6.2015 -2.30261,7.01505c-0.23113,0.8094 -2.16389,8.87551 -2.38674,9.32828c-0.81975,1.66546 -2.49956,2.80059 -3.34129,4.45505c-1.35101,2.65545 -1.07425,5.89464 -2.13058,8.68046c-4.16582,10.98644 -11.70563,22.5775 -19.85423,31.28482c0.7853,0.69909 1.61166,1.37247 1.9954,2.32299c1.12851,2.79533 0.21195,9.22904 0.21195,12.20317c0,5.42043 0.8325,11.59276 -1.35179,16.71912c-1.74424,4.09356 -2.85376,3.55427 -5.23628,6.88809c-1.93719,2.71066 -3.48518,5.68254 -5.36509,8.43325c-4.01777,2.74684 -8.67086,5.02058 -12.48682,8.00648c-1.27486,0.99754 -2.14561,2.45795 -3.44666,3.42111c-5.20327,3.85191 -12.18137,5.65194 -17.90757,8.51631c-1.67887,0.83981 -3.14451,2.07032 -4.83226,2.89214c-2.09135,1.01834 -4.54632,1.15066 -6.62272,2.19913c-4.32526,2.18403 -8.77111,4.13416 -13.33756,5.7591c-0.23963,0.33599 -0.59749,0.65167 -1.11946,0.91265c-0.88037,0.44019 -1.60515,0.41355 -2.17432,0.19513c-5.00443,1.58477 -10.15013,2.76311 -15.43713,3.41925c-4.52951,0.56214 -9.63769,0.01772 -14.19843,-0.02002c-5.57822,-0.6057 -11.21708,-0.89198 -16.77971,-1.5153c-10.69192,-1.19809 -20.9992,-4.41726 -31.50287,-6.5336c-7.26936,-1.46467 -14.70737,-1.77632 -22.00218,-3.11523c-8.44434,-1.5499 -16.36076,-4.40979 -25.00571,-4.38766c0,0 -2.78441,0 -2.78441,-2.78441c0,-0.721 0.18669,-1.25528 0.4634,-1.65123c-4.56744,0.5385 -7.78746,0.84163 -12.00061,3.01484c-7.14094,3.68341 -13.94683,8.06801 -21.36698,11.23271c-3.61924,1.54361 -7.59464,2.16645 -11.32266,3.41035c-7.23679,2.41465 -13.74057,5.18988 -21.27096,6.72594c-0.2184,0.36571 -0.44538,0.7282 -0.68178,1.08715l0.46764,0.68302c0,0 0,2.7844 -2.7844,2.7844c-2.7844,0 -2.7844,-2.7844 -2.7844,-2.7844l0.46764,-3.77203c3.63809,-5.37805 4.82842,-12.02619 7.19711,-18.05238c8.48503,-21.58669 8.84696,-45.15223 12.6191,-67.81007c1.1887,-7.05486 0.12674,-13.91883 0.89848,-20.96817c0.16659,-1.52163 0.94209,-2.93399 1.11377,-4.45505c0.41629,-3.68861 -0.4133,-7.4471 -0.00018,-11.13607c0.25824,-2.30603 3.11211,-11.66705 4.18438,-12.35012c1.50544,-0.95901 3.08578,1.79691 4.66247,2.63363c1.4089,0.74768 2.93779,1.27324 4.29083,2.11779c8.84152,5.51878 16.94132,11.55649 26.71743,14.81173c-0.47876,-4.31705 -1.0152,-8.62986 -1.62977,-12.93757c-1.85461,-11.57037 -5.33807,-23.25497 -5.94131,-34.96937c-0.55414,-10.76105 -0.00561,-21.69834 -0.00561,-32.47573c0,-5.06748 -0.62656,-10.55515 0,-15.59267c0.23341,-1.87666 -0.60029,-4.75225 1.10765,-5.56421c5.09768,-2.42348 13.42287,4.16452 17.51636,6.47622c21.27617,11.82001 42.05409,24.56256 63.21307,36.60354c4.47774,2.54815 8.85182,5.64556 13.49714,7.87397c6.69208,3.21027 13.66013,5.77378 20.34538,9.07179c1.80789,0.90178 3.67095,1.77798 5.56044,2.65052c0.62286,-3.64447 1.38208,-7.28188 2.42677,-10.79292c0.93343,-3.13714 2.5498,-6.05034 3.40726,-9.2091c1.92658,-7.09721 2.56982,-14.55775 4.16248,-21.72502c0.60738,-2.73332 1.78496,-5.31481 2.45086,-8.03447c0.40298,-1.64587 -0.57083,-4.20097 0.9241,-4.99877c2.3718,-1.26575 5.41564,-0.26698 8.0627,0.20281c0.12712,0.02256 10.32885,4.16673 10.64205,4.29395c4.79174,1.94647 9.65079,3.13651 14.64633,4.46866c10.1249,2.70672 19.47902,7.4666 29.46881,10.53504c8.48951,2.60764 17.12825,4.15827 25.31371,7.71743l2.79174,-0.05477c0,0 2.78441,0 2.78441,2.7844c0,2.7844 -2.78441,2.7844 -2.78441,2.7844l-3.89083,-0.05477c-8.46093,-3.44611 -17.22288,-5.19638 -25.91935,-7.87523c-9.89654,-3.04852 -19.16563,-7.78722 -29.19895,-10.45574c-7.08894,-1.89039 -13.67401,-4.01255 -20.46497,-6.7819c-0.17105,-0.06976 -0.3422,-0.13928 -0.51342,-0.20865c8.11725,10.68655 16.4168,21.22544 24.31134,32.0749zM226.91297,280.57106c1.79759,3.14914 3.42787,6.40056 4.86583,9.72934c1.14771,2.65688 1.4825,5.67583 2.96887,8.15916c0.94658,1.58148 2.42182,2.81183 3.32201,4.42016c2.34753,4.19419 3.61316,9.18798 5.66811,13.55924c3.87745,8.2481 8.36185,15.87096 11.74136,24.37773c4.78321,6.98775 8.7594,14.63788 13.75524,21.47085c2.17559,2.97562 5.26703,5.18965 7.52468,8.10351c2.15442,2.78063 3.3817,6.21351 5.5953,8.94725c7.24183,8.94344 16.08682,16.66985 23.38393,25.6103c5.62978,6.89763 10.15033,14.59439 14.53433,22.34536c4.15295,4.12127 7.27816,9.13352 11.80477,12.90313c2.5435,2.11815 5.70723,3.47418 8.0538,5.80861c2.85891,2.84413 1.57198,4.01795 5.00991,6.22751c0.98763,0.63475 2.33719,0.50543 3.34129,1.11377c3.59469,2.17787 6.00981,4.81068 7.55818,8.51804c8.08057,-2.83723 15.8308,-6.57536 23.49048,-10.4035c5.40752,-2.70257 12.2252,-4.34771 17.09248,-8.02867c1.22149,-0.92378 2.0274,-2.3208 3.23592,-3.26147c3.6632,-2.85134 8.09984,-5.06324 12.01595,-7.58619c1.65533,-2.56926 3.04434,-5.3123 4.82023,-7.79976c1.52152,-2.13117 3.56393,-3.37854 4.62613,-5.83673c1.81481,-4.19995 0.87574,-10.03674 0.87574,-14.46623c0,-3.49126 1.38121,-9.11863 -1.41199,-11.39628l-1.11377,-1.11377c-0.68379,-0.68379 -0.89262,-1.36756 -0.87392,-1.96887c-0.0187,-0.60131 0.19013,-1.28509 0.87392,-1.96887c1.1544,-1.1544 2.3015,-2.37588 3.43244,-3.6533c-2.82107,-1.41092 -5.6411,-2.82393 -8.46021,-4.23877c-7.32466,-5.13801 -15.1291,-9.43604 -22.51308,-14.42488c-8.52053,-5.75672 -16.46027,-12.61027 -25.34842,-17.85641c-2.68932,-1.58735 -6.51223,-2.89238 -9.05272,-4.54367c-0.42826,-0.27837 -7.57723,-6.5164 -7.8601,-6.7262c-4.49371,-3.33286 -9.73931,-5.98346 -15.04702,-8.45232c-0.42865,0.67735 -1.22502,1.34379 -2.67676,1.1364c-2.75642,-0.39377 -2.36265,-3.1502 -2.36265,-3.1502c0.01313,-0.09163 0.02629,-0.1833 0.03949,-0.275c-2.43864,-1.11064 -4.84427,-2.21607 -7.1489,-3.36564c-6.67512,-3.293 -13.63181,-5.8465 -20.3133,-9.05601c-4.75237,-2.28284 -9.22684,-5.43103 -13.80881,-8.0385c-21.14802,-12.03474 -41.91511,-24.77096 -63.18016,-36.58496c-2.61441,-1.47641 -5.2081,-3.2486 -7.82671,-4.8476c2.97078,5.63067 6.2191,11.09669 9.36814,16.61343z"/><path d="M288.86796,164.19927c0,-2.66172 0,-7.09793 0,-9.75965c0,0 0,-1.9115 1.77448,-2.18554c0,-1.40915 0,-3.39292 0,-4.02515c0,-6.70109 0.37472,-13.53503 0.00779,-20.22086c-0.35581,-6.48312 -2.52481,-12.10417 -5.13454,-17.90456c-0.61409,-1.36489 -1.19874,-2.7112 -1.81351,-4.03171c-0.1941,0.3143 -0.3814,0.63229 -0.55899,0.9555c-0.71536,1.302 -0.92824,2.84279 -1.65761,4.13698c-2.5642,4.54992 -6.45898,8.47954 -8.81351,13.19644c-1.43902,2.88282 -2.18838,5.97508 -3.81141,8.84702c-3.77948,6.68776 -8.55456,12.05379 -14.51972,16.73656c-1.46871,1.15297 -2.0541,3.18687 -3.48728,4.38372c-1.12572,0.9401 -2.60238,1.35339 -3.90358,2.03008c-1.90253,1.26069 -4.05387,2.09845 -6.09667,3.11623c-0.90325,0.45003 -1.74923,1.002 -2.58324,1.57536c0.52095,1.20378 1.45436,2.24801 1.74018,3.52722c0.3398,1.52084 -0.13237,3.12634 0.04272,4.6748c0.27808,2.45905 0.8931,4.89424 0.90386,7.36894c-0.01163,2.29403 0.62096,4.54646 0.87062,6.82691c0.37265,3.40391 -0.59496,7.18955 -0.01203,10.56261c0.50992,2.95056 0.91588,5.26148 0.91588,8.34047v0.88724c0,0 0,1.20417 -0.88724,1.83803c0,0.04103 0,0.08512 0,0.13199c0.22499,0.07793 0.44998,0.15586 0.67497,0.23379c1.57686,-0.0622 3.1926,0.36883 4.7368,0.04293c6.1691,-1.30195 11.26181,-4.30724 17.03068,-6.85173c8.37312,-5.56994 12.80449,-15.59596 17.78747,-24.02039c1.53653,-2.59771 3.62791,-4.82448 5.41742,-7.25486c0.53298,-0.72387 1.042,-1.5111 1.53357,-2.33339c-0.15712,-0.44523 -0.15712,-0.82499 -0.15712,-0.82499zM239.62608,211.66666c-1.16512,0 -1.71822,-0.61201 -1.9808,-1.19307c-9.9625,1.13568 -19.9865,1.91601 -29.95968,2.97838c-1.54098,0.16415 -7.00509,-0.00429 -8.682,0.32101c-1.38528,0.26872 -2.65591,0.96 -4.01051,1.3553c-4.1882,1.22225 -8.16578,1.84953 -12.23632,3.48648c-4.58543,1.71975 -9.57162,3.1102 -13.98597,5.22934c-2.2289,1.06999 -2.23042,1.63964 -3.93621,3.19841c-3.24296,2.96345 -6.5203,6.07355 -9.83455,8.93903c-7.76528,6.71382 -16.27109,12.17729 -24.95527,17.46871c0.00397,0.12001 0.00635,0.24013 0.00703,0.36036v1.77448c0,0 0,2.2181 -2.2181,2.2181c-1.49811,0 -1.98439,-1.01183 -2.14224,-1.66872c-1.6493,1.22219 -2.93982,2.94885 -4.70102,4.01392c-0.26119,0.15795 -7.68443,3.14916 -8.15715,3.34042c-8.95929,5.80446 -19.76061,6.83101 -29.95436,9.01665c-1.49775,0.32113 -2.90572,1.03672 -4.42307,1.24662c-2.83588,0.39228 -5.83997,-0.27515 -8.70739,-0.10497c-0.0566,0.39588 -0.25105,0.82354 -0.67872,1.25122c-1.56843,1.56843 -3.13687,0 -3.13687,0l-0.44582,-0.71232c-10.87914,1.3447 -23.47158,1.55823 -33.49681,-2.38163c-4.84569,-2.42991 -9.42706,-3.33454 -14.74772,-4.31255c-1.14595,-0.21064 -2.28256,-0.47764 -3.4193,-0.74232v0.36971c0,0 0,2.2181 -2.2181,2.2181c-2.2181,0 -2.2181,-2.2181 -2.2181,-2.2181c0,-0.41838 0,-0.83799 0,-1.25874c-0.22025,-0.03063 -0.44097,-0.05841 -0.6622,-0.08292c-3.29162,-0.36467 -7.13916,0.0108 -10.42832,0.0108c-1.95182,0 -3.92257,-0.30025 -5.85539,-0.02864c-1.81064,0.25443 -3.42567,1.30411 -5.19961,1.74711c-1.38269,0.34529 -2.84169,0.37787 -4.19548,0.82319c-4.22399,1.38948 -7.30361,4.77066 -11.55256,6.21692c0,0 -1.1493,0.3831 -2.03228,-0.26632c0,1.45758 0,2.91516 0,4.37273l0.23758,-0.68119c0,0 1.56844,1.56843 0,3.13687c-1.56844,1.56843 -3.13687,0 -3.13687,0l-1.53691,-2.45567c0,-9.16816 0,-18.33631 0,-27.50447c0,-7.90096 0.46733,-16.01025 -0.26417,-23.88096c-0.27319,-2.93942 -1.1796,-5.79369 -1.49951,-8.72839c-0.4462,-4.09313 -0.01079,-8.52453 -0.01079,-12.63994c0,-9.46347 0,-18.92692 0,-28.39038c-1.69944,-1.2291 -0.51471,-3.00621 -0.51471,-3.00621c0.23569,-0.35352 3.63226,-5.46551 3.78318,-5.61738c4.83719,-4.86711 11.85045,-9.59205 18.27243,-11.96437c3.90013,-1.44074 8.10583,-1.44305 11.91895,-2.81228c1.40553,-0.5047 2.58115,-1.564 4.01025,-1.99753c3.72735,-1.13073 7.92811,-0.77298 11.76823,-0.77718c2.4856,-0.00272 5.01957,-0.45955 7.45676,0.02863c0.313,0.06269 7.74235,2.55227 8.41813,2.77788c4.78133,2.04675 8.85092,3.0845 13.88671,4.34742c1.7735,0.44478 3.38444,1.5274 5.19961,1.74712c3.49787,0.42339 7.09326,0.07368 10.62815,-0.45314c0.32507,-0.27088 0.78556,-0.46274 1.43793,-0.46274c0.30139,0 0.56185,0.04095 0.7869,0.11173c1.076,-0.17665 2.14316,-0.35816 3.19686,-0.52726c9.39792,-1.50813 19.39,-3.57773 27.79956,-8.19551c3.77242,-2.07149 7.09975,-4.7428 10.55487,-7.28556c4.82532,-4.68759 9.11084,-9.8029 13.8436,-14.57594c0.25796,-0.26015 6.17351,-6.20726 6.40247,-6.37278c1.92602,-1.39237 4.40812,-1.79101 6.53326,-2.85498c3.42623,-1.71538 6.47742,-3.31202 10.46317,-3.75789c5.79873,-0.6487 11.74064,0.07686 17.39961,0.88724c0.92729,0.13279 1.89947,-0.19599 2.81017,0.0234c1.45266,0.34995 2.71832,1.28376 4.16519,1.65699c0.36955,0.09532 5.17361,0.08746 5.39357,0.08826c9.33606,1.8661 21.0435,1.94428 30.0459,-1.64021c3.69581,-1.47157 7.30554,-3.66639 10.8628,-5.44378c3.39197,-1.6948 6.7887,-3.58674 10.00369,-5.7319c0.16668,-0.48042 0.54385,-0.95672 1.32468,-1.24953c0.15018,-0.05632 0.29358,-0.09771 0.43039,-0.12602c0.72811,-0.91663 1.43244,-1.8551 2.18205,-2.75232c1.60898,-1.92581 3.7195,-3.39343 5.32345,-5.32345c1.85605,-2.23336 3.42165,-5.21139 5.47037,-7.26011c1.63332,-1.63332 3.69305,-2.79998 5.32345,-4.4362c2.94137,-2.95187 4.86499,-6.89111 9.1983,-7.71895c3.88378,-0.74196 7.24105,0.81651 10.54962,2.43759c1.46204,-0.43639 2.92978,-0.84925 4.40185,-1.24712c0.02133,-1.24811 1.26944,-1.87218 1.26944,-1.87218c4.53924,-2.26962 9.34917,-3.83401 13.85751,-6.07309c1.17887,-0.58549 2.11775,-1.6533 3.37045,-2.05737c2.51762,-0.81209 7.87918,-0.08888 10.38124,-0.08888c2.76432,0 6.76373,-0.58461 9.38203,0.05934c2.77954,0.6836 5.13741,2.5691 7.85288,3.47427c3.68412,1.22807 7.4754,2.49583 10.67927,4.87024c2.49912,1.85212 4.24824,4.43648 6.10987,6.8546c2.21351,1.62346 4.07197,3.24309 5.74998,5.11239c0.51395,-0.05705 1.11711,0.08222 1.72025,0.68537c0.79843,0.79844 0.78397,1.59686 0.57732,2.18839c0.24693,0.34594 0.49137,0.70134 0.73405,1.06724l0.99896,2.93482c0,0 0.70143,2.10428 -1.40285,2.80571c-2.10428,0.70143 -2.80571,-1.40285 -2.80571,-1.40285l-0.56358,-1.73586c-2.78422,4.00252 -4.05405,8.91306 -5.93176,13.42217c-3.82886,9.19461 -8.08283,17.58593 -13.42569,25.96923c-1.86353,3.70035 -4.00527,5.61761 -6.28454,8.99364c-1.45207,2.1508 -2.20757,4.70191 -3.47068,6.96886c-1.7989,3.22855 -3.9573,6.25953 -5.79296,9.47239c-1.86728,3.2682 -3.70055,7.27526 -5.91928,10.30858c-0.87731,1.19941 -2.12943,2.08931 -3.02234,3.27715c-7.45195,9.91325 -10.8114,22.04208 -21.62022,29.26013c-6.18919,2.76883 -11.77995,6.02004 -18.45896,7.34413c-0.50005,0.09913 -1.57687,0.0732 -2.67707,0.03908l-0.0287,0.18665l0.57599,0.69015c-0.22697,0 -0.45587,0.00957 -0.68603,0.02556l-0.09649,0.6275c0,0 -1.48447,0.74224 -2.52728,-0.34146c-0.46191,0.03938 -0.91947,0.057 -1.36762,0.02762c-0.32842,0.31499 -0.81433,0.54801 -1.53327,0.54801zM176.64144,166.41736c-5.42537,0.03949 -9.32554,1.28048 -14.23719,3.37742c-7.06027,3.01424 -13.38543,5.61178 -19.75464,9.92325c-1.34923,0.91333 -2.7087,1.84473 -4.20118,2.49826c-1.06157,0.46485 -2.37341,0.24364 -3.37838,0.82075c-1.19118,0.68403 -1.89225,2.0099 -2.98966,2.83605c-1.45991,1.09908 -3.07814,2.05797 -4.69027,3.03797c-0.00001,4.18411 -0.00003,8.36823 -0.00003,12.55233c0,7.81295 -0.65894,15.98249 -0.00756,23.77256c0.44351,5.30411 1.17603,10.57088 1.7535,15.84334c0.22682,2.07082 -0.28994,4.18839 0.01192,6.24961c0.07382,0.50406 0.16178,1.0072 0.25341,1.51017c2.06184,-1.13796 4.12722,-2.27505 6.12217,-3.51838c3.7294,-2.32432 6.7775,-5.4595 10.22704,-8.14192c2.06557,-1.60622 4.40075,-2.86252 6.37678,-4.57769c4.64085,-4.02818 9.02718,-9.92932 14.62096,-12.70532c4.50233,-2.23435 9.69874,-3.65265 14.40574,-5.41755c4.19811,-1.67088 8.29663,-2.36034 12.60642,-3.61144c1.22418,-0.35537 2.39217,-0.91401 3.61568,-1.26122c-1.22514,-1.09898 -2.43715,-2.26615 -3.11172,-3.42705c-2.31202,-3.97881 -1.21852,-10.04507 -1.21852,-14.47474c0,-4.02804 0.71928,-8.95742 0.02864,-12.95332c-0.15724,-0.90976 -0.7398,-1.71349 -0.88111,-2.62584c-0.19407,-1.25307 0.16067,-2.5645 -0.11449,-3.80229c-0.31357,-1.41054 -1.22635,-2.63 -1.62422,-4.0191c-0.19196,-0.67019 -0.31926,-1.3533 -0.41194,-2.04348c-4.36613,-0.34002 -9.06569,0.15769 -13.40138,0.15765zM54.11208,229.2071c-9.81155,-1.52327 -17.9552,-7.7512 -27.49952,-9.77823c-4.06909,-1.62031 -8.38091,-2.85993 -12.7893,-3.63681c0,5.57493 0,11.14984 0,16.72477c0,9.96642 0,19.93282 0,29.89923c1.40799,0.21496 2.81533,0.45426 4.22128,0.71267c5.65381,1.0392 10.60223,2.0556 15.76306,4.62878c7.1958,2.94087 15.33766,2.4667 23.04696,2.46706c2.77595,0.00013 5.11227,-0.14245 7.56277,-0.40586c0.11328,-7.6212 0.58501,-15.46759 -0.89779,-22.88747c-0.01325,-5.71509 -0.18152,-11.45139 -0.47334,-17.19164c-3.15498,0.07699 -6.25331,-0.11632 -8.93412,-0.53251zM-31.23639,223.51689c4.73512,-2.82591 8.47062,-6.80688 13.60099,-9.01967c8.35665,-3.60432 17.79339,-4.68916 27.02244,-3.80959c0,-18.30213 0,-36.60428 0,-54.90641c-2.17927,0.00325 -5.55456,-0.00305 -7.35337,0.56766c-1.39553,0.44275 -2.544,1.48551 -3.92548,1.97032c-2.4918,0.87448 -5.23673,0.7599 -7.79499,1.41493c-7.42618,1.90141 -15.14486,6.81378 -20.57152,12.20013c-0.84451,0.83824 -1.46105,1.86258 -2.05502,2.90577c0.00006,0.00403 0.00006,0.00613 0.00006,0.00613c0,10.35114 0,20.70229 0,31.05343c0,3.96453 -0.44987,8.26084 -0.01079,12.20281c0.2053,1.84316 0.63474,3.65543 0.99462,5.47684c0.05791,-0.04125 0.09308,-0.06235 0.09308,-0.06235zM61.73426,166.861l-0.02864,2.30642c0.26735,0.77187 0.5347,1.54373 0.80205,2.3156c0,0 0.70143,2.10428 -1.40285,2.80571c-0.0313,0.01043 -0.06228,0.02025 -0.09296,0.02945c1.23598,6.57754 2.59152,13.15427 3.36849,19.7845c0.8623,7.35848 1.09273,14.79953 1.77871,22.15693c0.27378,2.93629 0.54087,5.86509 0.7813,8.79278c2.74585,-0.29157 5.38417,-0.8324 7.58546,-1.67227c1.28599,-0.49065 2.34444,-1.44469 3.54897,-2.1107c9.1999,-5.0868 17.33699,-10.92524 24.79078,-18.37732c3.94286,-3.22079 9.17262,-5.59873 12.75281,-9.2078c1.04142,-1.04981 1.61353,-2.50591 2.66172,-3.54897c1.40012,-1.39328 3.0084,-2.54523 4.67382,-3.62177c0.00002,-7.18137 0.00003,-14.36274 -0.00009,-21.5441c-0.00014,-8.76199 0.55572,-17.73242 -0.01038,-26.47391c-0.20725,-3.2003 -0.72512,-6.44096 -1.22884,-9.64771c-0.95669,1.03976 -1.87538,2.12356 -2.86693,3.12304c-4.82506,4.86361 -9.19589,10.06911 -14.12636,14.83732c-3.7069,2.74094 -7.28089,5.58326 -11.33265,7.8137c-8.83533,4.86373 -19.30341,7.07383 -29.18529,8.66214c-0.83217,0.13376 -1.67104,0.27279 -2.51497,0.41036c-0.04527,0.6926 -0.12227,1.38397 -0.2241,2.07235c0.26994,0.54956 0.26994,1.09429 0.26994,1.09429zM199.08401,163.77227c6.0166,0.84755 11.92435,2.32059 18.14248,1.76865c2.26075,-0.20067 4.31837,-1.44441 6.35214,-2.45192c2.80335,-1.38875 6.06556,-2.14921 8.86223,-3.54402c0.18274,-0.09114 0.36317,-0.18644 0.54163,-0.28522c-1.39127,-4.58888 -2.37845,-9.57893 -3.50472,-14.08914c-0.58009,-2.32304 -0.42746,-4.77875 -0.89369,-7.12729c-0.4934,-2.48538 -1.56568,-4.82254 -2.21383,-7.27212c-1.79946,-6.80071 -3.22855,-13.567 -5.41899,-20.20268c-0.10647,0.00088 -0.21605,-0.00735 -0.32802,-0.02678c-2.92477,1.8073 -5.96958,3.41044 -8.86524,4.85925c-3.68672,1.84461 -7.43532,4.10379 -11.26878,5.622c-4.65551,1.84378 -9.97383,2.81876 -15.35684,3.10692c2.54006,7.66513 4.81287,15.46662 6.46941,23.37959c0.87177,4.16426 1.60243,8.49894 2.28536,12.69836c0.12025,0.73939 0.18446,1.4892 0.23763,2.24069c1.64934,0.45804 3.26698,1.08531 4.95925,1.32369z"/><path d="M71.65108,362.16616v-1.33086c0,-3.60091 -0.1817,-7.2155 0.17619,-10.76002c-0.14485,-1.15156 -0.26509,-2.3086 -0.34592,-3.47414c0.20461,0.40535 0.42685,0.79833 0.66165,1.18214c0.01149,-0.06448 0.02321,-0.12893 0.03517,-0.19334c0.24805,-3.33952 0.19299,-6.05926 -0.47101,-9.25361c-0.43352,-2.08556 -0.35524,-4.06838 -1.95606,-5.34931c-1.98744,-1.59027 -4.94533,-0.98707 -7.14155,-0.98707c-5.36841,0 -10.06019,0.84641 -15.18149,3.05489c-0.02955,3.35808 -0.14215,6.77656 0.39409,10.07117c0.27986,1.71939 1.38823,3.75493 0.62314,5.5916c-0.11503,0.27615 -0.73282,0.40761 -1.43703,0.46793c0,1.72115 0,3.4423 0,5.16344c0,2.56964 0,5.68993 0,8.25957v0.05064c0.08767,0.01397 0.17563,0.02523 0.26394,0.03328c1.61451,0.1473 3.4562,-0.95868 5.10706,-1.07477c6.074,-0.42714 12.18525,-0.3946 18.26844,-0.3946c0.39788,0 0.79575,0 1.19361,0c-0.19023,-0.53663 -0.19023,-1.05696 -0.19023,-1.05696zM44.94731,333.81043c-0.52948,-2.10428 1.05896,-2.80571 1.05896,-2.80571c4.04119,-1.7828 7.84322,-2.69437 11.77818,-3.1188c0.74997,-0.14659 1.49626,-0.26373 2.23482,-0.33653c1.93266,-0.19054 3.9724,-0.00542 5.9112,-0.00542c0.04157,0 0.08774,-0.00098 0.13806,-0.00279c0.00216,0.00933 0.00431,0.01863 0.00646,0.02792c1.89436,0.03472 3.80017,0.26209 5.46684,1.66928c4.4137,3.72653 4.39481,13.1023 3.93547,19.11224c-0.50345,2.62218 -0.55572,5.32255 -0.52962,8.03249c0.39574,2.33455 0.77302,4.67358 0.99182,7.05611c0.23776,0.18452 0.45807,0.52652 0.45807,1.16039c0,0.53935 -0.15951,0.86739 -0.35355,1.06689c0.02673,1.47463 0.0678,3.776 0.06991,3.98554c0.00563,0.55584 0.10201,1.12842 0.00007,1.66765c-0.04765,0.25205 -0.5922,0.66902 -0.41884,0.54748c0.38688,-0.27124 0.67053,-0.77338 1.07174,-1.00522c2.42487,-1.4013 5.17767,-1.03398 7.74549,-1.45989c2.51678,-0.41744 4.98059,-1.05443 7.51084,-1.33476c0.88506,-0.09771 1.76783,-0.19583 2.64893,-0.29812c-0.04181,-0.29516 -0.07865,-0.59117 -0.11118,-0.88793c0.37327,-0.10311 0.75546,-0.21937 1.14701,-0.34905c0.28914,-0.09576 0.57714,-0.20154 0.86364,-0.31698c0.04779,0.43725 0.10559,0.87189 0.17583,1.30334c2.40929,-0.30453 4.81027,-0.66222 7.21692,-1.14988c1.46642,-0.29712 1.51456,-0.39294 3.11592,-0.28c0.37515,0.02645 0.79155,0.45579 1.11631,0.20559c0.31158,-0.24005 0.32387,-0.87364 0.36628,-1.34783c0.18439,-2.06174 -0.0593,-4.57089 -0.30817,-6.59281c-0.1541,-1.2521 -0.5106,-2.59193 -0.86573,-3.95136c0.9005,-2.85505 1.2238,-5.9985 1.1235,-9.18316c0.31883,-0.13526 0.64266,-0.25993 0.94282,-0.4281c1.34183,-0.75182 2.77926,-1.22023 4.21986,-1.50815c1.78099,-0.34792 3.60227,-0.7509 5.40165,-0.86952c1.22229,-0.08058 2.45724,0.21135 3.67138,0.00821c1.92801,-0.32258 3.82177,-1.27195 5.77239,-1.53869c1.80332,-0.2466 3.76599,-0.12348 5.57725,-0.12354c2.10867,-0.00007 5.62879,-1.1929 6.77919,1.95107c0.12309,0.33642 0.06579,4.69291 0.07331,4.78688c0.2592,3.2412 1.05357,6.62714 1.64902,9.79189c0.286,2.6537 0.28016,5.21583 0.43238,7.87521c0.18046,3.15289 0.7609,6.2642 0.83353,9.41931c0.04281,1.85964 -0.23973,4.06306 -0.01298,5.8764c0.11135,0.89042 0.52122,1.68061 0.65106,2.56662c0.14177,0.96738 0.1748,1.96381 0.15725,2.94897c-0.0059,0.33132 -0.44313,0.78179 -0.22663,0.94784c0.39734,0.3047 0.91734,-0.07189 1.37643,-0.06607c0.6698,0.00848 1.33817,0.08681 2.00779,0.10894c3.73692,0.12352 7.48113,0.04655 11.21889,0.04655c0.73108,0 1.48877,0.32006 2.19281,0.05906c0.95552,-0.35421 1.06773,-1.58366 1.44996,-2.60193c0.24049,-0.64068 0.63322,-1.20442 0.7494,-1.9032c0.13192,-0.79338 -0.02345,-1.62454 -0.0278,-2.43691c-0.01474,-2.7528 0,-5.50669 0,-8.25957c0,-2.22153 -0.37364,-4.45467 1.23969,-6.04973c0.64545,-0.63814 1.51296,-0.73256 2.27377,-1.0826c1.0374,-0.47729 2.04682,-1.11341 3.1275,-1.37211c0.50297,-0.1204 3.62838,-0.45035 4.19997,-0.56329c2.67064,-0.52767 5.3217,-1.44951 7.95826,-2.21217c0.11219,-0.00042 4.08976,-0.01799 4.26964,-0.00818c0.89691,0.04892 1.96893,-0.45579 2.68586,0.25984c0.7578,0.75643 0.85772,2.26849 1.07336,3.49258c0.44104,2.50364 0.1139,5.88227 0.15813,8.4619c0.06714,3.9154 0.71892,7.75715 0.86067,11.653c0.13424,3.68926 0.13711,7.40596 0.10528,11.12434c0.29346,0.0659 0.87305,0.32617 0.87305,1.35426c0,1.06193 -0.61836,1.30467 -0.90107,1.36015c-0.0341,2.94814 -0.07525,5.89337 -0.07525,8.82286c0,1.40746 -0.18858,2.83512 -0.00919,4.22239c0.43499,3.36405 1.49287,6.52373 1.66839,9.98252c0.0043,0.0848 0.00343,4.61172 0.00343,5.06743c0,1.33124 0.3465,4.31939 -0.0791,5.48255c-0.97272,2.65834 -1.9412,1.7435 -3.79596,1.94761c-0.68582,0.07548 -1.35789,0.31164 -2.04366,0.38795c-2.33088,0.2594 -4.65403,0.24376 -6.97652,0.2737c0.00001,0.02141 0.00001,0.04283 0.00001,0.06424v2.75319c0,0 0,1.3766 -1.03913,1.3766c-1.03913,0 -1.03913,-1.3766 -1.03913,-1.3766c0,-0.00559 0,-2.76437 0,-2.76997c-1.42885,0.05268 -2.85825,0.1588 -4.28986,0.39298c-4.06388,0.00504 -8.01734,0.84562 -12.05399,1.10128c-1.37436,0.08705 -2.75742,-0.1666 -4.1278,-0.0029c-1.3778,0.16459 -2.70612,0.80842 -4.08314,0.98422c-2.75132,0.35127 -5.64656,0.10654 -8.41069,0.11223c-4.15705,0.00856 -8.3141,0.00942 -12.47115,0.01028c-0.51083,0.00001 -1.02167,0.00002 -1.5325,0.00003c0.00012,0.24017 0.00015,0.48099 0.00015,0.72249v1.10128c0,0 0,1.3766 -1.03913,1.3766c-1.03913,0 -1.03913,-1.3766 -1.03913,-1.3766v-1.10128c0,-0.24153 0,-0.48233 -0.00007,-0.72245c-0.7587,0.00001 -1.51738,0.00003 -2.27608,0.00003h-1.66263c0,0 -0.18226,0 -0.39411,-0.10111c-0.32531,0.24779 -0.69817,0.18606 -0.69817,0.18606l-1.14598,-0.19069c-0.47428,-0.12535 -0.94857,-0.2507 -1.42285,-0.37605c0,0 -0.64602,-0.17116 -0.80641,-0.92235c-11.82464,1.81446 -23.63635,3.70263 -35.44147,5.73479c-7.25216,1.2484 -14.72104,3.16923 -22.06058,2.82679c-0.34417,-0.01606 -0.69319,-0.03226 -1.04523,-0.05017c-0.07142,0.40716 -0.29652,1.04878 -1.00593,1.04878c-0.79256,0 -0.98063,-0.80079 -1.02525,-1.18084c-0.96616,-0.08184 -1.9289,-0.19843 -2.85194,-0.38124c-1.96335,-0.38883 -3.87155,-1.25881 -5.83374,-1.6548c-2.72784,-0.55049 -5.53354,-0.73012 -8.27941,-1.09742c-3.70646,-1.12326 -7.40211,-2.27033 -11.19794,-2.74716c-9.45031,-1.18715 -19.09863,-0.54394 -28.57777,-0.54394c-1.19316,0 -2.38589,-0.01452 -3.57836,-0.03886c-0.07376,0.40764 -0.30139,1.03659 -1.00377,1.03659c-0.7316,0 -0.94811,-0.68234 -1.01219,-1.08624c-5.47618,-0.15567 -10.94902,-0.46213 -16.43536,-0.46213c-1.93972,0 -3.87944,0 -5.81916,0c-0.48908,0 -2.70171,0.03888 -2.98425,-0.16289c-0.48504,-0.34637 -0.54021,-1.31766 -0.97174,-1.77163c-0.31748,-0.334 -0.81689,-0.1929 -1.16252,-0.47363c-1.0967,-0.89076 -2.0921,-2.60403 -3.1702,-3.60747c-1.67639,-5.28389 -2.54481,-10.87956 -3.42063,-16.4711c-0.38142,-2.43514 -1.02126,-4.81964 -1.36394,-7.25525c-0.10147,-0.72124 -0.19484,-1.4451 -0.28076,-2.17126c-0.39265,0.0434 -0.78768,0.07043 -1.18742,0.07178h-0.13855c0,0 -1.03913,0 -1.03913,-1.3766c0,-1.3766 1.03913,-1.3766 1.03913,-1.3766h0.13855c0.30242,0.00118 0.60191,-0.01542 0.89967,-0.04423c-0.85815,-9.1878 -0.6658,-18.67794 -0.69831,-27.85535c-0.00001,-8.26066 -0.00001,-16.5213 -0.00001,-24.78195c0,-1.69713 -0.13683,-3.4047 0.00506,-5.09139c0.12884,-1.53155 0.60735,-2.97733 0.83935,-4.4874c0.11301,-0.73558 -0.18006,-1.66258 0.18304,-2.23888c0.83338,-1.32269 2.25119,-1.11605 3.33691,-1.12232c1.09895,-0.00635 2.198,-0.00495 3.29703,-0.0029c0.29737,-0.54774 0.85951,-0.54774 0.85951,-0.54774c5.26496,0 10.52992,0 15.79488,0c1.99718,0 3.63803,0.06123 5.59349,0.70884c0.39529,0.13091 0.80341,0.2098 1.18396,0.40274c0.15135,0.07673 0.37274,0.60692 0.38522,0.39288c0.03537,-0.60649 -0.26368,-1.17389 -0.30436,-1.77979c-0.15727,-2.34234 0,-4.80283 0,-7.1583c0,-4.58865 0,-9.17731 0,-13.76596c0,-0.7832 -0.01936,-4.13893 0.0981,-4.43836c0.95739,-2.44032 3.42599,-3.56933 5.19915,-4.17255c2.44219,-0.83082 5.00811,-1.1428 7.60398,-1.22598c0.05849,-0.35454 0.23459,-0.73473 0.68464,-0.93347c0.98582,-0.43532 1.31441,0.87063 1.31441,0.87063c0.00318,0.01304 0.00635,0.02609 0.00949,0.03913c2.89388,0.01709 5.79495,0.22441 8.57469,0.22441c0.4704,0 2.7788,-0.04357 3.0155,0.18597c1.50009,1.4547 2.34307,5.37974 2.51716,7.63003c0.35283,4.56085 0.18325,9.19863 0.48274,13.75147c0.2302,3.49955 0.92739,6.98171 1.25065,10.47514c0.32958,3.56174 0.42292,7.04901 0.42359,10.63148c0.00046,2.49035 0.11186,4.85258 -0.30436,7.28656c2.02555,-1.06647 3.91928,-2.55781 5.94873,-3.61031c3.15394,-1.63568 6.4578,-2.65143 9.81521,-3.14552c1.99154,-0.29309 3.94398,-0.25502 5.94663,-0.25502c0.06585,0 0.13184,-0.00184 0.19789,-0.00487c0,-0.50212 0,-0.99521 0,-1.47527c0,0 0,-1.20281 0.84871,-1.35978c-0.56079,-3.57898 -0.44562,-7.25314 -0.42567,-10.88806c-0.16198,-0.2223 -0.30354,-0.52385 -0.4057,-0.92983zM127.93645,421.38382c-0.87144,-5.06206 -1.84761,-10.10387 -2.75636,-15.15562c-0.31253,-1.73736 -0.67121,-3.35191 -0.80563,-5.07946c-0.60563,0.09433 -1.21301,0.18576 -1.82279,0.27174c-5.7078,0.80494 -11.55552,-0.54594 -17.26609,-0.54594c0,0 -0.32131,0 -0.60659,-0.23669c-0.91434,0.36323 -1.86181,0.45836 -3.00399,0.6184c-1.49996,0.21018 -2.97457,0.24205 -4.45232,0.22913c-0.10793,0.38685 -0.36188,0.84196 -0.95935,0.84196c-0.61362,0 -0.8649,-0.48003 -0.96779,-0.87316c-0.546,-0.00979 -1.0941,-0.01782 -1.64572,-0.01744c-7.40864,0.00503 -14.95769,0.64536 -22.31648,1.76053c-2.79288,0.42247 -5.58116,0.70371 -8.39159,0.78802l-0.02073,0.00014c-0.25578,0.44485 -0.69268,0.54131 -0.69268,0.54131c-0.25425,0.05607 -0.50853,0.11073 -0.76286,0.16405c0.50635,0.36329 0.50635,1.21571 0.50635,1.21571c0,11.85599 0,23.71197 0,35.56795c0.3659,0.01867 0.72867,0.03552 1.08612,0.05264c7.21982,0.34568 14.5852,-1.5776 21.71869,-2.80558c12.37304,-2.12992 24.75332,-4.10182 37.14811,-5.99644c0,0 1.03229,-0.15778 1.15139,1.20972c0.01168,0.13401 0.01228,0.25641 0.00389,0.36817l1.03889,0.17114c0,0 0.1179,0.01953 0.26898,0.09818c0.27416,-0.20438 0.56552,-0.20438 0.56552,-0.20438h1.66261c0.75589,-0.00001 1.51177,-0.00003 2.26766,-0.00003c-0.03255,-4.37221 -0.18962,-8.58316 -0.94723,-12.98403zM60.15442,404.95416c-4.99354,0.96127 -10.00214,1.46459 -15.03318,2.1538c-5.81101,0.79604 -11.72053,2.01915 -17.56306,2.02613c-3.49043,-0.00033 -6.99335,-0.33052 -10.47705,-0.75354v0.2791c0,0 0,1.3766 -1.03913,1.3766c-1.03913,0 -1.03913,-1.3766 -1.03913,-1.3766c0,-0.18007 0,-0.36039 0,-0.54093c-0.0634,-0.00822 -0.1268,-0.01646 -0.19019,-0.02471c-0.2589,0.99452 -1.10843,0.84446 -1.10843,0.84446c-4.80404,-0.84856 -9.4903,-2.90163 -14.33333,-3.25068c0.34943,3.90591 0.25273,7.83864 0.25273,11.78208c0.00001,5.80351 0,11.607 0,17.41051c1.18071,0.0239 2.36165,0.03815 3.543,0.03815c9.54809,0 19.26375,-0.64086 28.78256,0.55734c3.83945,0.4833 7.58212,1.62395 11.32993,2.77015c2.74151,0.35941 5.54134,0.5438 8.26426,1.0942c1.9527,0.39471 3.85158,1.26073 5.80458,1.64903c0.82527,0.16409 1.68293,0.27118 2.54557,0.34742c0,-11.46693 0,-24.16305 0,-35.43018c0,0 0,-0.54783 0.26088,-0.95231zM101.45616,398.51834c1.39146,-0.19539 2.69063,-0.13072 3.77964,-1.24188c0,0 0.84557,-0.80013 1.44957,0.32006c0.10616,0.19688 0.16753,0.38386 0.19659,0.55836c5.14018,0.20604 10.38846,1.26679 15.4983,0.52178c5.05105,-0.73644 9.94378,-1.78303 15.04487,-1.84014c1.66576,0.00865 2.95226,-0.55061 4.59656,-0.9789c2.0847,-0.54299 4.192,-0.86698 6.30816,-1.06365c1.96519,-0.18265 3.94098,-0.42057 5.91726,-0.52938c0,-1.46047 0,-3.09265 0,-4.47655c-2.16136,0.00957 -4.32296,0.00503 -6.48184,-0.06928c-1.0429,-0.0359 -4.11774,-0.08257 -4.88352,-0.96441c-0.28877,-0.33255 -0.3527,-4.76537 -0.41757,-5.19597c-0.13782,-0.91487 -0.55261,-1.73588 -0.66334,-2.65719c-0.23439,-1.95019 0.02935,-4.23944 -0.01298,-6.23764c-0.06587,-3.10955 -0.65153,-6.193 -0.82909,-9.30238c-0.04456,-0.78041 -0.07356,-1.55267 -0.10023,-2.32154c-0.48209,0 -1.4429,0 -1.76641,0c-1.26553,-0.00169 -2.38177,0.35205 -3.61392,0.54032c-2.93607,0.44864 -5.97224,-0.17897 -8.90855,0.18917c-1.10121,0.13806 -2.15377,0.68458 -3.2473,0.90524c-1.7966,0.36254 -3.59537,0.07943 -5.39608,0.20062c-2.44656,0.16465 -4.87704,0.54394 -7.32806,0.55066c-0.0909,1.21381 -0.39407,2.35905 -1.30903,3.21074c-0.36578,0.34049 -3.16521,0.14605 -3.79231,0.20158c-1.78974,0.15852 -3.57983,0.80808 -5.36051,1.09572c-0.94045,0.15191 -1.8862,0.27012 -2.83392,0.37263c0,9.47697 0,18.95393 0,28.43089c1.378,0.01129 2.75412,-0.0223 4.1537,-0.21884zM-21.99376,376.62653c0.28384,7.51561 0.00336,15.14511 0.00336,22.67228v0.70311c2.74787,0.1492 5.51081,0.50203 8.17473,0.69085c4.06153,0.28787 8.12878,0.46501 12.19136,0.7341c0,0 1.03784,0.06874 0.98595,1.44362c-0.00078,0.02063 -0.00178,0.04092 -0.00299,0.06091c4.48376,0.30909 8.81727,2.03774 13.24108,3.00438c0.15446,-0.56556 0.49161,-0.75524 0.75864,-0.81263c0.06662,-0.01775 0.13554,-0.02708 0.2061,-0.02708c0.06613,0 0.1308,0.00818 0.1935,0.02383l0.74121,0.16655c0.16782,0.02245 0.33571,0.0448 0.50367,0.06703c0,-11.18498 0,-23.11681 0,-34.13723c0,0 0,-0.18387 0.05072,-0.41722c-6.04278,0.34776 -12.06964,-0.60158 -18.07893,-1.07842c-0.12618,0.07393 -0.28027,0.11905 -0.46843,0.11905c-0.24751,0 -0.43608,-0.07811 -0.57971,-0.1971c-0.55496,-0.03843 -1.10977,-0.07194 -1.66443,-0.09914c-2.57901,-0.12744 -5.13391,-0.26326 -7.71515,-0.26326c-1.91482,0 -4.04481,0.26654 -5.94613,-0.01031c-1.00773,-0.14673 -2.02593,-0.38478 -3.05,-0.63696c0.04301,0.21518 0.04314,0.3799 0.04314,0.38083c-0.00155,2.57248 0.31553,5.05064 0.41229,7.61282zM44.92998,351.22421c-0.08423,-0.00157 -0.15155,-0.00272 -0.19789,-0.00272c-2.59891,0 -5.15134,-0.01847 -7.7271,0.53202c-2.4564,0.52497 -4.95342,1.4748 -7.26949,2.6751c-1.71693,0.88979 -3.75453,3.03233 -5.5632,3.3685c-0.86991,0.16168 -1.74688,-0.24743 -2.62031,-0.37115c-0.38724,-4.74141 -0.12552,-9.4029 -0.30511,-14.14709c-0.13085,-3.45661 -0.63485,-6.84564 -1.0721,-10.24257c-0.30622,0.46123 -0.80751,0.46123 -0.80751,0.46123h-1.24697c-2.99083,0 -6.07036,-0.27219 -9.05415,-0.0052c-2.5147,0.22501 -4.97379,1.41495 -7.49837,1.65366c-1.32445,0.12523 -2.67313,0.12489 -4.02237,0.09385c0,10.59057 0,21.18114 0,31.77171c6.04282,0.50782 12.10148,1.44217 18.17847,0.98588c2.02923,-0.15236 4.02949,-0.80676 6.02198,-1.29086c4.14009,-1.00587 8.22121,-1.96924 12.41437,-2.47038c3.22152,-0.38501 6.48864,-0.96784 9.72641,-0.47001c0.35175,0.05408 0.69847,0.1525 1.04339,0.26593c0,-2.3193 0,-4.92843 0,-7.13245c0,-1.7807 0,-3.74074 0,-5.67543zM-24.06867,399.29881c0,-7.48104 0.28132,-15.06532 -0.00076,-22.53471c-0.09843,-2.60646 -0.4134,-5.13206 -0.41489,-7.7504c0,0 0,-0.44731 0.19248,-0.83196c-1.80453,-0.42333 -3.61852,-0.74826 -5.41698,-0.55907c-2.4865,0.26159 -4.77717,1.39732 -7.23519,1.61981c0,1.79264 0,3.58528 -0.00001,5.37793c0.03214,9.06897 -0.16689,18.45377 0.68361,27.53286c0.28661,-0.05371 0.57422,-0.10675 0.86395,-0.15407c2.40498,-0.79947 4.96723,-1.5312 7.43164,-1.85217c1.28015,-0.16673 2.58308,-0.22422 3.89615,-0.21327zM179.02476,413.16747c0.68649,6.12309 0.92943,12.359 0.98152,18.55521c2.26811,-0.02413 4.53687,-0.00869 6.81315,-0.26439c1.27264,-0.14297 2.55392,-0.12923 3.82539,-0.28944c0.12621,-0.0159 0.24771,-0.19069 0.26893,-0.35627c0.1668,-1.30162 -0.0791,-3.09016 -0.0791,-4.42895c0,-1.61469 0.08345,-3.23286 0.00343,-4.84406c-0.16914,-3.40562 -1.24214,-6.5208 -1.65685,-9.84045c-0.18849,-1.50876 -0.00919,-3.05855 -0.00919,-4.58783c0,-2.91981 0.04084,-5.85503 0.07473,-8.79303c-2.10508,0.03996 -4.23502,0.14239 -6.32163,-0.08004c-1.7804,-0.18979 -3.29695,-0.67598 -5.07563,-0.6684c-0.51928,-0.04913 -1.03877,-0.08856 -1.55846,-0.11969c0.18769,5.30427 2.14811,10.49424 2.7337,15.71735zM7.51948,314.97503c0.22878,4.90762 1.65372,9.4748 1.66421,14.39272v1.35612c2.94947,-0.23685 5.98601,0.02047 8.93658,0.02047h1.24697c0,0 0.28037,0 0.54985,0.19293c-0.13793,-1.20007 -0.25631,-2.40306 -0.33584,-3.61228c-0.18024,-2.73999 -0.03471,-5.48531 -0.23225,-8.23626c-0.22647,-3.15378 0.00811,-6.27271 -1.08989,-9.12019c-0.23701,-0.61465 -0.26913,-1.41249 -0.65046,-1.88279c-0.18026,-0.22232 -0.47973,0.1628 -0.72539,0.18597c-0.41461,0.03909 -0.83131,0 -1.24697,0c-2.6817,0 -5.42903,-0.15658 -8.17031,-0.17245c0.14506,2.26257 -0.0553,4.54132 0.05353,6.87576z"/></g><path d="M-79.7557,465.27824v-102.43096h599.56253v102.43096z" fill="url(#color-1)" stroke="none" stroke-width="0"/><path d="M-105.70488,538.34565v-75.79891h521.03213v75.79891z" fill="#000000" stroke="none" stroke-width="0"/><path d="M-44.50187,53.63699v-39.06973h434.85254v39.06973z" fill="url(#color-2)" stroke="#000000" stroke-width="0.5"/></g></g></svg>