<svg version="1.1" xmlns="http://www.w3.org/2000/svg" xmlns:xlink="http://www.w3.org/1999/xlink" width="762.03215" height="536.46263" viewBox="0,0,762.03215,536.46263"><defs><linearGradient x1="140.17006" y1="238.03896" x2="140.17006" y2="133.68104" gradientUnits="userSpaceOnUse" id="color-1"><stop offset="0" stop-color="#000000" stop-opacity="0"/><stop offset="1" stop-color="#000000"/></linearGradient><linearGradient x1="219.82994" y1="371.98" x2="219.82994" y2="476.33791" gradientUnits="userSpaceOnUse" id="color-2"><stop offset="0" stop-color="#000000" stop-opacity="0"/><stop offset="1" stop-color="#000000"/></linearGradient><linearGradient x1="172.9244" y1="14.56725" x2="172.9244" y2="53.63699" gradientUnits="userSpaceOnUse" id="color-3"><stop offset="0" stop-color="#ffffff"/><stop offset="1" stop-color="#c1c1c1"/></linearGradient></defs><g transform="translate(165.25076,-14.31726)"><g stroke-miterlimit="10"><path d="" fill="#000000" stroke="none" stroke-width="0.5"/><path d="" fill="#000000" stroke="none" stroke-width="0.5"/><path d="M594.21271,476.58169c-0.05093,3.32281 -0.11237,6.64236 -0.11237,9.94415c0,1.58634 -0.28156,3.19544 -0.01373,4.75901c0.64948,3.79159 2.22902,7.35283 2.49109,11.25119c0.00643,0.09558 0.00511,5.19781 0.00511,5.71144c0,1.50043 0.51738,4.86835 -0.1181,6.17932c-1.2222,2.52136 -2.43994,2.19075 -4.44555,2.15973l-0.22377,-0.62828l-0.21425,-0.45295l-0.13965,-0.48121l-0.49758,-1.23816c0.75194,-0.0331 1.50328,-0.07382 2.25235,-0.14507c0.18844,-0.01792 0.36986,-0.21493 0.40154,-0.40155c0.24905,-1.46704 -0.1181,-3.48289 -0.1181,-4.99182c0,-1.81989 0.12459,-3.64372 0.00511,-5.45968c-0.25255,-3.83844 -1.85465,-7.34952 -2.47386,-11.09107c-0.28143,-1.70051 -0.01373,-3.44726 -0.01373,-5.17089c0,-3.29089 0.06098,-6.59915 0.11158,-9.91054c-3.14313,0.04505 -6.32336,0.16049 -9.43889,-0.09021c-2.11047,-0.16983 -3.97263,-0.55021 -5.97949,-0.69551l-5.28276,-13.14548c1.97296,-9.19333 3.98739,-18.38686 5.76811,-27.58744c0.14804,-0.03395 0.29605,-0.06797 0.44402,-0.10203l8.3303,26.32374l1.55097,3.60636l0.1246,0.17657l0.56969,1.66083l2.75137,3.04526l1.7541,2.48564l1.10826,0.68246l1.99863,2.21212l0.72641,0.17898c-0.14762,0.92924 -0.93959,1.15852 -1.32142,1.21509z" fill="#000000" stroke="none" stroke-width="0.5"/><path d="" fill="#000000" stroke="none" stroke-width="0.5"/><g fill="#505050" stroke="none" stroke-width="0.5"><path d="M303.99464,133.55431c0.60322,4.32939 0.01051,8.85636 0.92385,13.09215c3.35951,-0.32054 6.70742,-0.69703 10.06327,-1.21032c2.04478,-0.31275 2.11191,-0.4136 4.34484,-0.29471c0.5231,0.02785 1.10374,0.47977 1.55657,0.2164c0.43448,-0.25267 0.4516,-0.91957 0.51073,-1.41869c0.25712,-2.17014 -0.08269,-4.81121 -0.4297,-6.93943c-0.35087,-2.1519 -1.45413,-4.54999 -2.07291,-6.88211c16.04217,0.24558 32.11105,-0.5164 48.1449,-0.04279c0.11037,0.00326 0.2207,0.00657 0.33102,0.00995c0.46134,1.9595 1.01844,3.9141 1.48712,5.79451c0.3988,2.79322 0.39065,5.49005 0.60291,8.28926c0.25165,3.31865 1.06099,6.59353 1.16227,9.91454c0.05969,1.95741 -0.33429,4.27667 -0.01811,6.18534c0.15526,0.93723 0.72679,1.76896 0.90786,2.70156c0.19769,1.01823 0.24374,2.06706 0.21928,3.10402c-0.00823,0.34874 -0.61791,0.8229 -0.31601,0.99766c0.55405,0.32073 1.27914,-0.07567 1.9193,-0.06956c0.93395,0.00894 1.86593,0.09137 2.79964,0.11468c5.16793,0.12894 10.34586,0.05031 15.51509,0.04901c-0.09933,1.10953 -0.21494,2.21525 -0.36566,3.31275c-0.81456,5.93177 -2.03749,11.82246 -2.43261,17.79684c-0.02616,0.39559 -0.02192,26.02245 -0.02192,30.52392v0.03704c-1.65282,0.25108 -3.26738,0.78232 -4.93303,0.94285c-3.83643,0.36973 -7.87357,0.11214 -11.72785,0.11813c-5.7966,0.009 -11.59316,0.0099 -17.38976,0.01081c-0.71231,0.00001 -1.4246,0.00002 -2.13691,0.00003c0.00018,0.2528 0.00022,0.50629 0.00022,0.76048v1.15917c0,0 -0.00001,1.44897 -1.44897,1.44897c-1.44897,0 -1.44896,-1.44897 -1.44896,-1.44897v-1.15917c0,-0.25424 0,-0.50769 -0.0001,-0.76044c-1.05792,0.00001 -2.11584,0.00003 -3.17377,0.00003h-2.31837c0,0 -0.25413,0 -0.54955,-0.10642c-0.45362,0.26083 -0.97353,0.19584 -0.97353,0.19584l-1.59795,-0.20071c-0.66135,-0.13194 -1.32268,-0.26388 -1.98403,-0.39582c0,0 -0.9008,-0.18016 -1.12445,-0.97084c-16.48825,1.90985 -32.95849,3.89729 -49.41955,6.0363c-10.1124,1.31403 -20.527,3.33585 -30.76124,2.9754c-0.47991,-0.01691 -0.96658,-0.03394 -1.45746,-0.05281c-0.09959,0.42857 -0.41346,1.10392 -1.40268,1.10392c-1.10514,0 -1.36738,-0.84289 -1.42961,-1.24292c-1.34722,-0.08615 -2.68967,-0.20886 -3.97674,-0.40128c-2.7377,-0.40926 -5.39849,-1.32501 -8.13455,-1.7418c-3.8037,-0.57943 -7.71595,-0.7685 -11.5448,-1.15512c-5.16828,-1.18231 -10.32148,-2.38968 -15.61439,-2.8916c-13.17749,-1.24957 -26.63109,-0.57254 -39.8488,-0.57254c-1.66374,0 -3.32688,-0.01528 -4.98967,-0.04089c-0.10286,0.42908 -0.42025,1.09109 -1.39966,1.09109c-1.02013,0 -1.32205,-0.71822 -1.41141,-1.14335c-7.63598,-0.16385 -15.26731,-0.48643 -22.91744,-0.48643c-2.70474,0 -5.40949,0 -8.11423,0c-0.68198,0 -3.76727,0.04092 -4.16124,-0.17145c-0.67635,-0.36459 -0.75328,-1.38695 -1.35499,-1.86478c-0.4427,-0.35156 -1.13908,-0.20304 -1.62101,-0.49852c-1.52924,-0.93759 -2.91724,-2.74093 -4.42052,-3.79714c-2.33756,-5.56169 -3.54848,-11.45156 -4.76971,-17.33706c-0.53185,-2.56317 -1.42405,-5.07303 -1.90187,-7.6367c-0.1415,-0.75917 -0.2717,-1.52108 -0.39149,-2.28541c-0.54752,0.04569 -1.09835,0.07413 -1.65574,0.07555h-0.19319c0,0 -1.44896,0 -1.44896,-1.44896c0,-1.44896 1.44896,-1.44897 1.44896,-1.44897h0.19319c0.4217,0.00125 0.83932,-0.01623 1.2545,-0.04656c-1.1966,-9.67085 -0.9284,-19.65993 -0.97373,-29.31984c-0.00001,-8.69496 0,-17.3899 0,-26.08487c0,-1.49902 -0.13436,-3.00577 -0.06067,-4.50078h5.25992c15.26773,0 30.53037,-0.25768 45.79066,-0.64539c0,7.73847 0,15.47693 0,23.21539c8.4261,0.53452 16.87429,1.51799 25.34803,1.03771c2.82955,-0.16037 5.61871,-0.84917 8.39704,-1.35872c5.77294,-1.05876 11.46365,-2.07277 17.3106,-2.60025c4.49209,-0.40525 9.04775,-1.01873 13.56248,-0.49473c0.49049,0.05692 0.97394,0.16052 1.4549,0.27992c0,-2.44124 0,-5.18754 0,-7.50744c0,-1.87432 0,-3.93741 0,-5.97382l-0.00001,-0.00001c-0.11744,-0.00166 -0.21132,-0.00287 -0.27594,-0.00287c-3.62393,0 -7.18302,-0.01945 -10.77466,0.55998c-3.42519,0.55258 -6.90704,1.55234 -10.13658,2.81574c-2.39407,0.93657 -5.23531,3.19175 -7.75733,3.54559c-1.21299,0.17018 -2.43584,-0.26044 -3.65377,-0.39067c-0.44782,-4.13898 -0.27323,-8.2201 -0.34345,-12.341c0.93184,0.05079 1.86372,0.10225 2.79564,0.15433c0.01474,0.81906 0.02115,1.64104 0.02136,2.46784c0.00065,2.62128 0.15599,5.1077 -0.4244,7.66965c2.82443,-1.12255 5.46504,-2.69229 8.2949,-3.80012c4.39787,-1.72168 9.00475,-2.79082 13.68631,-3.3109c2.77699,-0.30851 5.49948,-0.26842 8.29197,-0.26842c0.09182,0 0.18382,-0.00194 0.27594,-0.00512c0,-0.30725 0,-0.61129 0,-0.91129c1.67403,0.10766 3.34813,0.21567 5.02229,0.32374c0.29542,0.99421 0.40775,2.00291 -0.12057,2.96029c-0.16041,0.29066 -1.02184,0.42904 -2.0038,0.49252c0,1.81164 0,3.62327 0,5.43491c0,2.70474 0,5.98908 0,8.69382v0.05329c0.12224,0.01471 0.24491,0.02655 0.36804,0.03503c2.25128,0.15504 4.81932,-1.00909 7.12128,-1.13128c8.46958,-0.44959 16.9911,-0.41534 25.47349,-0.41534c1.43807,0 2.87613,0 4.31419,0c-0.63221,-4.73113 -1.94342,-9.36723 -2.71142,-14.09452c0.99015,0.05765 1.98032,0.1147 2.97049,0.1711c0.83477,4.74069 2.22305,9.36237 2.80565,14.15099c0.33152,0.19422 0.63874,0.5542 0.63874,1.22139c0,0.5677 -0.22244,0.91298 -0.49299,1.12298c0.03728,1.55216 0.09453,3.97452 0.09748,4.19508c0.00785,0.58507 0.14225,1.18775 0.00009,1.75533c-0.06645,0.2653 -0.82576,0.70419 -0.58404,0.57626c0.53947,-0.28551 0.93498,-0.81403 1.49443,-1.05808c3.38123,-1.47497 7.21972,-1.08834 10.8003,-1.53664c3.5094,-0.43938 6.94493,-1.10988 10.4731,-1.40494c1.23415,-0.10285 2.46505,-0.20613 3.69366,-0.31378c-0.79554,-4.23941 -0.29972,-8.64557 -0.90032,-12.95611c-0.20548,-1.47477 -0.46114,-2.94319 -0.74145,-4.40846c0.98947,0.03952 1.97895,0.07786 2.9684,0.11497c0.24164,1.29435 0.46183,2.59149 0.64326,3.89359zM348.4084,203.34365c-1.21514,-5.3282 -2.5763,-10.63509 -3.84346,-15.95244c-0.43579,-1.82869 -0.93593,-3.52813 -1.12336,-5.34651c-0.8445,0.0993 -1.69142,0.19552 -2.5417,0.28603c-7.95895,0.84726 -16.11301,-0.57465 -24.07581,-0.57465c0,0 -0.44803,0.00001 -0.84583,-0.24913c-1.27495,0.38233 -2.59611,0.48245 -4.18877,0.65091c-2.09154,0.22123 -4.14773,0.25477 -6.2083,0.24118c-0.1505,0.40719 -0.5046,0.88623 -1.33773,0.88623c-0.85564,0 -1.206,-0.50527 -1.34948,-0.91907c-0.76135,-0.01031 -1.52562,-0.01876 -2.2948,-0.01837c-10.33059,0.00529 -20.85699,0.67929 -31.11806,1.8531c-3.89438,0.44468 -7.78234,0.7407 -11.70122,0.82945l-0.02891,0.00015c-0.35666,0.46824 -0.96587,0.56977 -0.96587,0.56977c-0.35452,0.05902 -0.7091,0.11655 -1.06373,0.17268c0.70604,0.38239 0.70604,1.27962 0.70604,1.27962c0,12.47931 0,24.95862 0,37.43794c0.51021,0.01965 1.01605,0.03738 1.51448,0.05541c10.0673,0.36387 20.33757,-1.66054 30.2845,-2.95309c17.25295,-2.24191 34.516,-4.31747 51.79927,-6.3117c0,0 1.43941,-0.16609 1.6055,1.27334c0.01628,0.14106 0.01714,0.26988 0.00543,0.38752l1.44863,0.18014c0,0 0.1644,0.02055 0.37507,0.10336c0.3823,-0.21513 0.78856,-0.21513 0.78856,-0.21513h2.31834c1.054,-0.00001 2.10801,-0.00003 3.16201,-0.00005c-0.0454,-4.60209 -0.2644,-9.03442 -1.32082,-13.66666zM253.52949,187.05257c0,0 0,-0.57664 0.36377,-1.00237c-6.96299,1.0118 -13.94696,1.5416 -20.96224,2.26703c-8.10287,0.8379 -16.3431,2.1253 -24.48991,2.13265c-4.86706,-0.00035 -9.75152,-0.34789 -14.60918,-0.79316v0.29378c0,0 0,1.44896 -1.44897,1.44896c-1.44896,0 -1.44897,-1.44896 -1.44897,-1.44896c0,-0.18953 0,-0.37933 0,-0.56938c-0.08841,-0.00865 -0.1768,-0.01732 -0.26519,-0.02601c-0.361,1.04679 -1.5456,0.88886 -1.5456,0.88886c-6.69874,-0.89317 -13.23327,-3.05419 -19.98638,-3.42159c0.48724,4.11126 0.35241,8.25075 0.35241,12.40153c0,6.10863 0,12.21724 0,18.32586c1.64637,0.02516 3.29308,0.04015 4.94036,0.04015c13.31385,0 26.86134,-0.67456 40.13436,0.58664c5.35373,0.50872 10.57249,1.70934 15.79843,2.91579c3.82275,0.37831 7.72683,0.57239 11.52368,1.15173c2.72285,0.41547 5.37065,1.32701 8.09391,1.73573c1.15075,0.17271 2.34668,0.28543 3.54955,0.36568c0,-12.06981 0,-25.43344 0,-37.29293zM311.48433,179.27601c1.94024,-0.20566 3.75182,-0.13759 5.27033,-1.30716c0,0 1.17907,-0.8422 2.02127,0.33688c0.14802,0.20723 0.2336,0.40405 0.27413,0.58772c7.16745,0.21686 14.48564,1.33339 21.61081,0.54921c7.04318,-0.77516 13.86559,-1.87678 20.97856,-1.93688c2.32274,0.00911 4.11662,-0.57956 6.40945,-1.03037c2.90691,-0.57155 5.84532,-0.91255 8.79609,-1.11957c2.74025,-0.19225 5.49529,-0.44268 8.25103,-0.55722c0,-1.53725 0,-3.25524 0,-4.71191c-3.01381,0.01007 -6.02793,0.00529 -9.03829,-0.07293c-1.45423,-0.03778 -5.74179,-0.08691 -6.80956,-1.01512c-0.40268,-0.35004 -0.4918,-5.01591 -0.58226,-5.46915c-0.19219,-0.96297 -0.77056,-1.82715 -0.92497,-2.79689c-0.32682,-2.05272 0.04092,-4.46233 -0.0181,-6.56559c-0.09185,-3.27304 -0.9085,-6.5186 -1.15608,-9.79146c-0.06215,-0.82146 -0.10257,-1.6343 -0.13976,-2.4436c-0.67223,0 -2.01198,0 -2.46307,0c-1.76464,-0.00177 -3.32113,0.37055 -5.03925,0.56873c-4.09404,0.47222 -8.32768,-0.18837 -12.42208,0.19911c-1.53554,0.14532 -3.00321,0.72057 -4.52802,0.95284c-2.50517,0.3816 -5.01337,0.08361 -7.52429,0.21116c-3.41147,0.1733 -6.80053,0.57254 -10.21823,0.57961c-0.12675,1.27763 -0.54949,2.48308 -1.82531,3.37954c-0.51005,0.35839 -4.41356,0.15372 -5.28798,0.21218c-2.49559,0.16684 -4.99168,0.85057 -7.4747,1.15334c-1.31137,0.1599 -2.6301,0.28432 -3.95162,0.39223c0,9.97521 0,19.95043 0,29.92565c1.92147,0.01188 3.84034,-0.02349 5.79191,-0.23035zM139.34594,156.23324c0.39577,7.91074 0.00469,15.94137 0.00469,23.86428v0.74007c3.83163,0.15704 7.68428,0.52843 11.39885,0.72717c5.66339,0.30301 11.33477,0.48946 16.99961,0.7727c0,0 1.44716,0.07235 1.3748,1.51952c-0.00109,0.02171 -0.00248,0.04308 -0.00417,0.06411c6.25215,0.32534 12.29478,2.14489 18.46334,3.16233c0.21537,-0.59531 0.6855,-0.79495 1.05786,-0.85535c0.09289,-0.01869 0.18899,-0.02849 0.28739,-0.02849c0.0922,0 0.18239,0.00861 0.26981,0.02507l1.03354,0.17531c0.23401,0.02363 0.46812,0.04716 0.70232,0.07055c0,-11.77303 0,-24.33217 0,-35.932c0,0 0,-0.19355 0.07073,-0.43916c-8.42606,0.36605 -16.8299,-0.6332 -25.20923,-1.13512c-0.17595,0.07781 -0.39081,0.12532 -0.65317,0.12532c-0.34514,0 -0.60807,-0.08221 -0.80836,-0.20746c-0.77383,-0.04044 -1.54747,-0.07572 -2.32088,-0.10435c-3.59617,-0.13414 -7.15872,-0.27711 -10.75799,-0.27711c-2.67003,0 -5.64007,0.28055 -8.29128,-0.01085c-1.40517,-0.15445 -2.82496,-0.40502 -4.2529,-0.67046c0.05998,0.2265 0.06015,0.39987 0.06015,0.40085c-0.00216,2.70773 0.43997,5.31617 0.57489,8.01307zM136.45269,180.09752c0,-7.87436 0.39228,-15.85737 -0.00107,-23.71947c-0.13725,-2.74351 -0.57645,-5.40188 -0.57852,-8.15787c0,0 0,-0.47083 0.26839,-0.87571c-2.51624,-0.44559 -5.04566,-0.7876 -7.55343,-0.58846c-3.46718,0.27534 -6.66128,1.47079 -10.08873,1.70497c0,1.8869 -0.00001,3.77378 -0.00001,5.66067c0.04483,9.54577 -0.23272,19.42398 0.95322,28.98042c0.39964,-0.05653 0.8007,-0.11236 1.20471,-0.16217c3.35349,-0.8415 6.92629,-1.6117 10.36267,-1.94954c1.78504,-0.17549 3.60184,-0.23602 5.43279,-0.22449z"/><path d="M170.8468,309.7218c0,-5.09949 -0.18448,-10.23572 0.00161,-15.33064c0.2092,-5.72796 1.04041,-11.51552 1.64092,-17.22866c-2.45183,-0.06086 -4.99122,-0.03339 -7.37611,-0.37278c-4.70919,-0.67017 -9.70373,-2.14105 -14.28656,-3.42367c-1.18128,-0.33061 -2.35645,-0.72986 -3.52936,-1.16147c-0.72308,8.11927 -0.84444,16.29575 -1.18075,24.43865c-0.10331,2.50122 -0.61566,4.90754 -0.7753,7.38636c-0.14783,2.29528 -0.02299,4.64693 0.00018,6.95542c0.37545,0.44829 0.75167,0.89198 1.1331,1.32427c2.68493,3.04292 5.54852,5.74566 8.6074,8.42035c0.91415,0.79934 3.35564,2.12439 4.09724,3.61247c0.10091,-1.00897 0.38276,-3.21411 0.46262,-3.85287c0.38267,-3.44435 0.84581,-6.89102 1.1514,-10.34284c0.10803,-1.22024 -0.43845,-2.66657 0.27128,-3.66504c2.48991,-3.50283 6.70811,1.16774 8.46051,2.75074c0.44769,0.40442 0.88777,0.8208 1.32183,1.24617zM173.74314,294.52747c-0.18126,5.04979 0.00161,10.14007 0.00161,15.19433v1.35237c0,0 0,1.10473 -0.96461,1.38495c1.63084,1.73249 3.20838,3.53341 4.8283,5.22924c1.78259,1.86614 3.80856,3.58953 5.48079,5.54881c1.62189,1.90031 2.72959,4.52728 4.52606,6.25852c0.3891,0.37496 0.81771,0.70423 1.25499,1.02347c0.1407,-0.47284 0.32003,-0.94231 0.42963,-1.41783c0.62457,-2.70997 0.96067,-4.52426 1.05003,-7.28303c0.03465,-1.07014 -0.33839,-2.28913 0.01824,-3.26272c-0.0787,-0.43653 -0.03413,-1.10238 0.78274,-1.51082c0.3725,-0.18626 0.69147,-0.2119 0.9569,-0.15389c0.58158,-0.27907 1.22467,-0.4604 1.83242,-0.56781c1.1107,-0.19633 2.21653,0.42013 3.3203,0.6523c1.86092,0.39145 3.64537,1.1663 5.30997,2.08573c2.37208,1.31018 5.19881,2.34467 7.42454,3.87311c1.51464,1.04011 2.92167,2.35849 4.32467,3.64435c0.95597,-1.62396 1.9275,-3.23889 2.86706,-4.87239c0.33887,-0.58914 0.90933,-1.10687 0.99171,-1.7815c0.07627,-0.62463 -0.38685,-1.19803 -0.55383,-1.80473c-0.25363,-0.92157 -0.47175,-1.85255 -0.70764,-2.77884c-3.82852,-12.75656 -8.34195,-25.24278 -12.63426,-37.84799c-1.24642,-3.66032 -2.44653,-7.33726 -3.66863,-11.00577c-0.26752,-0.80305 -0.68649,-1.57313 -0.86597,-2.3954c-1.99829,2.27545 -4.15876,4.34036 -6.35019,6.45683c-0.75938,0.73341 -1.40653,1.60827 -2.2865,2.19154c-0.14766,0.09787 -5.27465,2.24826 -5.57994,2.3768c-0.36269,0.15271 -5.43788,2.30131 -5.65073,2.34038c-0.14095,0.02588 -2.77158,-0.09359 -4.49035,-0.17494c-0.59718,5.71648 -1.44155,11.51262 -1.6473,17.24492zM142.45069,303.82224c0.15983,-2.45078 0.67005,-4.82488 0.77026,-7.29654c0.34318,-8.4647 0.47632,-16.96368 1.26561,-25.39981c-3.03826,-1.19317 -6.0822,-2.40899 -9.19934,-3.01524c-2.60454,-0.50655 -5.59983,-0.31656 -8.25402,-0.49146c-2.40657,0.68887 -5.10787,1.10522 -7.56267,1.87133c0.3725,0.42666 0.3725,1.01248 0.3725,1.01248c-0.00843,7.57802 1.96318,15.10219 2.67145,22.63934c0.33973,3.61529 0.78458,7.20428 1.18275,10.80925c0.34209,3.09721 0.3545,6.10104 0.69555,9.14252c0.20351,-0.65469 0.37605,-1.31321 0.48911,-1.97871c0.40347,-2.37478 0.36863,-4.91389 0.55523,-7.31996c0.07178,-1.20136 -0.48295,-2.62388 0.21534,-3.6041c0.79317,-1.11343 2.29738,-1.86378 3.66426,-1.84194c1.21692,0.01945 2.07157,1.27889 3.087,1.94984c2.17092,1.43443 4.33082,2.87683 6.52445,4.28185c1.27852,0.8189 2.40334,1.84931 3.45469,2.96852c-0.01716,-1.24852 -0.0125,-2.49583 0.06782,-3.72738zM121.9682,316.87005l0.02813,-0.29542c-0.82629,-4.13348 -0.7128,-8.1352 -1.1776,-12.28801c-0.4059,-3.62644 -0.84852,-7.23618 -1.18949,-10.87345c-0.71579,-7.6354 -2.6762,-15.23114 -2.68413,-22.91016c0,0 0,-0.00464 0.00026,-0.0134c-1.42136,0.7375 -2.69523,1.75892 -4.06524,2.59616c-1.59226,0.97305 -3.32214,1.74755 -4.78381,2.90755c-1.32624,1.0525 -2.29422,2.49063 -3.44629,3.73134c-1.15215,1.24079 -2.47001,2.34579 -3.50993,3.67765c1.29045,8.8508 2.4076,17.70229 3.98023,26.50899c0.44075,2.46818 0.66132,5.13824 1.34356,7.55242c0.69322,2.45302 1.21864,2.87269 1.98238,5.35957c0.85178,2.7736 1.35804,5.72816 2.02605,8.55248c1.9835,8.38659 3.92972,16.87054 5.03661,25.42127c1.23789,-1.17913 2.48819,-2.34485 3.75581,-3.49196c-0.20411,-0.37634 -0.20411,-0.76862 -0.20411,-0.76862c0.00131,-7.6635 0.74685,-15.15352 1.8599,-22.72225c0.54333,-3.69461 0.8122,-7.5758 1.65326,-11.21326c0.03442,-0.14888 0.07137,-0.2975 0.11049,-0.4459c-0.71607,-0.37929 -0.71607,-1.28499 -0.71607,-1.28499zM107.65216,332.04277c-0.65327,-2.76207 -1.14213,-5.65598 -1.97603,-8.36831c-0.57061,-1.85592 -1.48679,-3.59709 -2.01289,-5.46611c-0.70207,-2.49417 -0.94057,-5.23874 -1.39573,-7.78763c-1.35532,-7.58976 -2.37424,-15.2125 -3.45524,-22.83955c-0.53066,1.189 -1.02829,2.39148 -1.56432,3.46792c-2.48368,4.98754 -4.86025,10.03799 -7.16677,15.10998c3.10734,5.89911 4.33387,12.46129 6.8448,18.58226c1.30427,3.17946 3.23036,6.11457 4.62896,9.25508c3.36887,7.56473 5.92473,15.84286 8.28948,23.7674c0.35851,1.2014 0.68137,2.40155 0.97632,3.60198v-0.00001c0.68907,-0.68391 1.38013,-1.36561 2.07408,-2.04415c-1.01665,-9.17949 -3.11611,-18.2882 -5.24266,-27.27884zM143.11351,338.33654c1.44897,0 1.44897,1.44897 1.44897,1.44897c-0.03677,0.39475 -0.25506,0.81518 -0.11029,1.18426c0.0562,0.14328 0.16583,0.2476 0.29495,0.3377c0.058,-0.00254 0.11598,-0.005 0.17393,-0.0074l-0.06878,-0.0656c0,0 0.16092,0 0.3755,0.05363c1.04676,-0.03858 2.08364,-0.05363 3.10203,-0.05363c2.87971,0 6.03185,-0.32052 8.88952,0.01328c0.03204,0.00374 0.06405,0.00766 0.09602,0.01175c0.02386,-1.69778 0.25738,-3.65819 0.01678,-5.29902c-0.08863,-0.60448 -0.50507,-1.13239 -0.57959,-1.73877c-0.323,-2.62852 -0.0224,-5.64126 -0.01874,-8.29776c-1.15793,-1.03949 -2.39266,-1.99246 -3.56433,-3.01704c-1.97197,-1.7244 -3.99595,-3.45624 -5.86927,-5.28542c-1.37942,-1.34692 -2.61083,-2.85627 -3.83366,-4.37481c-0.79068,-0.19656 -0.96817,-0.93009 -1.00802,-1.24951c-1.1853,-1.45872 -2.39824,-2.88685 -3.76404,-4.14678c-2.27163,-2.09558 -5.5275,-3.25929 -7.97514,-5.193c-0.02584,-0.02041 -0.05131,-0.04142 -0.07645,-0.06293c0.06707,0.69109 -0.17664,1.43948 -0.02013,2.12441c0.62405,2.73098 2.65607,5.18547 3.40234,7.89784c0.42526,1.54561 0.17115,3.23246 0.63437,4.76711c0.7111,2.35585 2.08593,4.51681 2.86665,6.85389c0.30065,0.89999 0.43419,1.85389 0.77827,2.73818c1.54318,3.96605 3.9146,6.6405 3.93972,11.07083v0.53807c0.20703,-0.14791 0.48802,-0.24827 0.86938,-0.24827zM172.6725,349.9283c-1.44897,0 -1.44897,-1.44897 -1.44897,-1.44897l0.00009,-0.57798c-3.27546,-0.74238 -6.49842,-1.57476 -9.73963,-2.47509c-1.55321,-0.43144 -3.05431,-1.12533 -4.65604,-1.30712c-2.73185,-0.31006 -5.74683,0.01328 -8.49812,0.01328c-6.09526,0 -13.01157,0.49374 -18.36107,3.83849c-1.58168,0.98895 -2.85722,2.39901 -4.29026,3.59322c-3.44331,2.86867 -6.70286,5.92558 -9.92056,9.03196c-0.07126,0.38874 -0.32405,1.09101 -1.22065,1.18219c-0.99075,0.96214 -1.97922,1.9273 -2.9696,2.89143l-0.00002,0.00001c0.90139,4.32975 1.53296,8.68147 2.25636,13.12696c0.85487,5.25351 2.22478,10.44321 2.95923,15.71437c0.60322,4.32939 0.01051,8.85636 0.92385,13.09215c3.35951,-0.32054 6.70742,-0.69703 10.06325,-1.21033c2.04477,-0.31275 2.11191,-0.4136 4.34484,-0.29471c0.52312,0.02785 1.10374,0.47975 1.55659,0.2164c0.43447,-0.25267 0.4516,-0.91957 0.51074,-1.4187c0.25711,-2.17014 -0.08269,-4.81121 -0.42971,-6.93943c-0.51811,-3.1776 -2.67678,-6.89201 -2.49358,-10.13813c0.05381,-0.95357 0.27563,-2.02909 0.95343,-2.70198c0.83274,-0.82672 2.13352,-0.97847 3.21425,-1.43556c1.87105,-0.79135 3.87539,-1.28437 5.88417,-1.58744c2.48341,-0.36621 5.023,-0.79038 7.53205,-0.91524c1.70435,-0.08482 3.42637,0.22246 5.11937,0.00864c2.68841,-0.33955 5.32907,-1.33882 8.04901,-1.61959c2.51456,-0.25957 5.2513,-0.12997 7.77691,-0.13004c2.94033,-0.00008 7.84877,-1.25562 9.45291,2.05365c0.17165,0.3541 0.09175,4.93964 0.10224,5.03855c0.36143,3.41161 1.4691,6.97556 2.29939,10.30669c0.3988,2.79322 0.39065,5.49005 0.60291,8.28925c0.25165,3.31865 1.06099,6.59353 1.16227,9.91454c0.05969,1.95741 -0.33429,4.27667 -0.0181,6.18536c0.15526,0.93723 0.72679,1.76897 0.90785,2.70156c0.19769,1.01823 0.24374,2.06706 0.21928,3.10401c-0.00823,0.34874 -0.61791,0.8229 -0.31601,0.99768c0.55405,0.32073 1.27914,-0.07567 1.9193,-0.06954c0.93396,0.00893 1.86595,0.09137 2.79966,0.11466c5.21075,0.13002 10.43169,0.049 15.6436,0.049c1.01942,0 2.07593,0.33688 3.05765,0.06217c1.33238,-0.37284 1.48885,-1.66692 2.02183,-2.73873c0.33534,-0.67436 0.88297,-1.26774 1.04496,-2.00326c0.18394,-0.83509 -0.0327,-1.70995 -0.03877,-2.56503c-0.02055,-2.89754 0,-5.7962 0,-8.69382c0,-2.33833 -0.521,-4.68887 1.72863,-6.36779c0.90002,-0.67169 2.10966,-0.77107 3.17054,-1.13952c1.44655,-0.50239 2.85408,-1.17195 4.36098,-1.44425c0.70134,-0.12674 5.05941,-0.47404 5.85643,-0.59291c3.72394,-0.55541 7.42057,-1.52572 11.09699,-2.32847c0.15645,-0.00044 5.70276,-0.01894 5.95359,-0.00861c1.25065,0.0515 2.74547,-0.47975 3.74517,0.2735c1.05667,0.7962 1.196,2.38776 1.49669,3.6762c0.61498,2.63527 0.15882,6.19153 0.22049,8.90679c0.09362,4.12125 1.00246,8.16498 1.20012,12.26567c0.18718,3.88323 0.1912,7.79533 0.1468,11.70919c0.40921,0.06936 1.21739,0.34332 1.21739,1.42546c0,1.11776 -0.86225,1.37326 -1.25646,1.43166c-0.04757,3.10314 -0.10494,6.20322 -0.10494,9.28672c0,1.48146 -0.26295,2.98417 -0.01282,4.44438c0.60654,3.54092 2.08166,6.86672 2.3264,10.50735c0.006,0.08926 0.00477,4.85418 0.00477,5.33385c0,1.40123 0.48316,4.54648 -0.11029,5.77079c-1.35635,2.79811 -2.70681,1.83516 -5.29308,2.05001c-0.9563,0.07944 -1.89345,0.32802 -2.84967,0.40835c-3.25018,0.27303 -6.48957,0.25657 -9.72806,0.28808c0.00001,0.02253 0.00001,0.04508 0.00001,0.06761v2.89794c0,0 0,1.44897 -1.44897,1.44897c-1.44897,0 -1.44897,-1.44897 -1.44897,-1.44897c0,-0.00589 0,-2.90971 0,-2.9156c-1.99239,0.05546 -3.98554,0.16715 -5.98177,0.41364c-5.66667,0.0053 -11.17936,0.89008 -16.80805,1.15918c-1.91641,0.09163 -3.84495,-0.17536 -5.75579,-0.00305c-1.9212,0.17323 -3.77341,0.85092 -5.69352,1.03597c-3.83643,0.36973 -7.87356,0.11214 -11.72785,0.11813c-5.79659,0.009 -11.59316,0.00991 -17.38976,0.01083c-0.71231,0.00001 -1.42461,0.00002 -2.13691,0.00003c0.00018,0.2528 0.00022,0.50628 0.00022,0.76048v1.15918c0,0 0,1.44897 -1.44897,1.44897c-1.44897,0 -1.44897,-1.44897 -1.44897,-1.44897v-1.15918c0,-0.25423 0,-0.50769 -0.0001,-0.76044c-1.05792,0.00001 -2.11584,0.00003 -3.17377,0.00003h-2.31837c0,0 -0.25414,0 -0.54955,-0.10642c-0.45362,0.26083 -0.97353,0.19584 -0.97353,0.19584l-1.59795,-0.20072c-0.66134,-0.13194 -1.32268,-0.26388 -1.98402,-0.39582c0,0 -0.90081,-0.18016 -1.12446,-0.97084c-16.48825,1.90985 -32.95849,3.89729 -49.41953,6.0363c-10.1124,1.31403 -20.527,3.33585 -30.76123,2.9754c-0.47991,-0.01691 -0.96659,-0.03396 -1.45746,-0.05281c-0.09959,0.42856 -0.41346,1.10392 -1.40268,1.10392c-1.10514,0 -1.36738,-0.84289 -1.42961,-1.24292c-1.34721,-0.08614 -2.68965,-0.20886 -3.97674,-0.40128c-2.73769,-0.40926 -5.39848,-1.325 -8.13455,-1.7418c-3.8037,-0.57943 -7.71595,-0.76851 -11.5448,-1.15512c-5.16828,-1.18231 -10.32148,-2.38968 -15.61439,-2.8916c-13.17749,-1.24957 -26.6311,-0.57254 -39.8488,-0.57254c-1.66374,0 -3.32688,-0.01528 -4.98967,-0.0409c-0.10285,0.42908 -0.42025,1.09109 -1.39966,1.09109c-1.02014,0 -1.32205,-0.71822 -1.41141,-1.14335c-7.63598,-0.16385 -15.2673,-0.48643 -22.91744,-0.48643c-2.70474,0 -5.40949,0 -8.11423,0c-0.68198,0 -3.76727,0.04092 -4.16124,-0.17145c-0.67635,-0.36458 -0.75328,-1.38694 -1.35499,-1.86478c-0.4427,-0.35156 -1.13907,-0.20305 -1.62101,-0.49852c-1.52924,-0.93759 -2.91724,-2.74093 -4.42052,-3.79714c-2.33756,-5.56169 -3.54848,-11.45156 -4.76971,-17.33706c-0.53185,-2.56317 -1.42404,-5.07303 -1.90187,-7.6367c-0.1415,-0.75916 -0.2717,-1.52108 -0.39149,-2.28541c-0.54751,0.04569 -1.09835,0.07413 -1.65574,0.07555h-0.19319c0,0 -1.44897,0 -1.44897,-1.44897c0,-1.44897 1.44897,-1.44897 1.44897,-1.44897h0.19319c0.4217,0.00125 0.8393,-0.01623 1.2545,-0.04656c-1.1966,-9.67085 -0.9284,-19.65993 -0.97373,-29.31984c-0.00001,-8.69496 -0.00001,-17.3899 -0.00001,-26.08487c0,-1.78636 -0.19079,-3.5837 0.00705,-5.35907c0.17965,-1.61208 0.8469,-3.13385 1.17039,-4.72333c0.15757,-0.77425 -0.25108,-1.74999 0.25523,-2.35659c1.16205,-1.39223 3.13905,-1.17473 4.65299,-1.18133c1.53238,-0.00669 3.06489,-0.00521 4.59737,-0.00305c0.41465,-0.57654 1.1985,-0.57654 1.1985,-0.57654c7.34145,0 14.6829,0 22.02435,0c2.78486,0 5.07286,0.06444 7.79955,0.74611c0.55119,0.13779 1.12028,0.22083 1.65091,0.42392c0.21103,0.08077 0.51974,0.63884 0.53714,0.41354c0.04931,-0.63838 -0.36767,-1.2356 -0.4244,-1.87336c-0.2193,-2.46549 0,-5.05534 0,-7.53464c0,-4.8299 0,-9.65981 0,-14.4897c0,-0.82438 -0.027,-4.35653 0.1368,-4.67171c1.33497,-2.56862 4.7772,-3.75698 7.24969,-4.39192c3.40539,-0.8745 6.9833,-1.20288 10.60299,-1.29043c0.08156,-0.37318 0.32711,-0.77336 0.95466,-0.98254c1.37462,-0.4582 1.83282,0.91641 1.83282,0.91641c0.00444,0.01373 0.00886,0.02745 0.01323,0.04119c4.03521,0.01798 8.08048,0.23621 11.95654,0.23621c0.65593,0 3.87475,-0.04586 4.20481,0.19574c2.09172,1.53117 3.26717,5.66258 3.50991,8.03117c0.49198,4.80064 0.25553,9.68225 0.67313,14.47446c0.32098,3.68354 1.29315,7.34878 1.7439,11.02587c0.45956,3.749 0.58972,7.41962 0.59064,11.19043c0.00065,2.62128 0.15599,5.1077 -0.4244,7.66965c2.82443,-1.12254 5.46504,-2.69229 8.2949,-3.80012c4.39787,-1.72168 9.00475,-2.79082 13.68631,-3.3109c2.77699,-0.3085 5.49948,-0.26843 8.29197,-0.26843c0.09182,0 0.18382,-0.00194 0.27594,-0.00513c0,-0.52852 0,-1.04753 0,-1.55283c0,0 0,-1.26604 1.18343,-1.43127c-0.84397,-4.06587 -0.58998,-8.24845 -0.58998,-12.36986c0.10947,-0.88579 -0.32501,-2.04939 0.32842,-2.6574c0.54554,-0.50762 5.52734,-1.4569 6.54229,-1.64319c4.41986,-0.81127 9.09991,-2.02585 13.57632,-2.35897c2.6949,-0.20056 5.5391,-0.0057 8.24257,-0.0057c1.26823,0 5.59653,-0.49466 6.6431,0.2735c0.34888,0.25607 2.01684,4.87781 2.10661,5.11889c1.60789,4.31824 1.47879,9.29395 1.83095,13.86667c0.48474,6.31361 2.61588,12.27644 3.37591,18.52339c0.33152,0.19422 0.63874,0.5542 0.63874,1.22141c0,0.56771 -0.22242,0.91299 -0.49299,1.12298c0.03728,1.55216 0.09453,3.97452 0.09748,4.19508c0.00785,0.58507 0.14224,1.18775 0.00009,1.75533c-0.06645,0.2653 -0.82576,0.7042 -0.58404,0.57626c0.53947,-0.28551 0.93498,-0.81404 1.49443,-1.05808c3.38123,-1.47497 7.21972,-1.08834 10.8003,-1.53664c3.5094,-0.43938 6.94492,-1.10987 10.4731,-1.40494c1.23414,-0.10285 2.46505,-0.20613 3.69366,-0.31378c-0.79554,-4.23941 -0.29973,-8.64557 -0.90032,-12.95611c-0.7305,-5.24286 -2.09524,-10.40558 -2.94637,-15.63099c-0.57177,-3.51035 -1.08147,-6.96108 -1.71723,-10.38873c-0.26989,0.06455 -0.59643,0.04291 -0.97962,-0.1487c-1.296,-0.648 -0.648,-1.944 -0.648,-1.944l0.86251,-1.69584c-0.40592,-1.83764 -0.86844,-3.6725 -1.41685,-5.51027c-2.33231,-7.8158 -4.84526,-15.99319 -8.17442,-23.45041c-1.40729,-3.15227 -3.33314,-6.09857 -4.64445,-9.29174c-1.62674,-3.96128 -2.55653,-8.21333 -4.07541,-12.21775c-0.9504,-2.50567 -2.07562,-4.93094 -2.98991,-7.4528c2.05763,-5.63869 4.79536,-11.04999 7.47052,-16.42244c1.20391,-2.41778 2.23953,-5.38969 3.79896,-7.59579c0.08459,-0.11966 3.89068,-4.21174 4.07364,-4.40878c1.24181,-1.33734 2.30818,-2.86535 3.73535,-4.00277c0.11221,-0.08943 4.88452,-3.00088 5.10721,-3.13698c0.2201,-0.13451 5.00417,-3.06346 5.1287,-3.11701c3.128,-1.34503 6.9363,-1.90695 10.23916,-2.75954c2.91132,0.15373 6.24113,-0.02716 9.10362,0.52958c3.7317,0.72578 7.56401,2.5387 11.16999,3.75544c7.82231,2.63943 15.91798,4.77037 24.16463,5.15971c1.92981,0.09111 3.86028,0.1692 5.78943,0.27333c0.80364,0.04338 1.61842,0.2962 2.40978,0.14964c1.79473,-0.33238 3.35042,-1.44958 5.03265,-2.15789c1.6979,-0.7149 3.56786,-1.10363 5.10344,-2.12146c0.73042,-0.48414 1.24072,-1.23789 1.86571,-1.85214c2.40133,-2.36003 4.8075,-4.59992 6.96076,-7.18746l1.03564,-1.24277c0.26574,-0.32351 0.66888,-0.52987 1.12022,-0.52987c0.68956,0 1.26662,0.48169 1.41305,1.12695l0.57224,2.28895l-0.11769,0.02942c2.20398,5.3009 3.73093,10.91304 5.61443,16.32941c4.07557,11.72005 8.17034,23.39318 11.73483,35.27953c0.07372,0.28923 1.39129,5.33381 1.3502,5.66758c-0.30738,2.49743 -3.03592,5.76261 -4.28955,7.8938c-0.07657,0.13016 -0.15358,0.25998 -0.23101,0.38943l1.82733,0.62954c0,0 1.36495,0.48623 0.87872,1.85118c-0.48623,1.36495 -1.85119,0.87872 -1.85119,0.87872l-2.29793,-0.8403c-0.03268,-0.02603 -0.06536,-0.05215 -0.09799,-0.07838c-2.94573,4.42231 -6.45446,8.37581 -10.61451,11.78364c-0.03181,0.02605 -4.20383,3.45051 -4.3507,3.52875c-6.40125,3.40976 -13.53643,2.98102 -20.52181,3.05973c-1.85616,0.0109 -3.61826,-0.34956 -5.39471,-0.76204c-0.02805,0.31542 -0.21382,1.35983 -1.44398,1.35983zM163.62324,308.44132c0.36537,0.25747 0.78282,0.46141 1.16924,0.69726c-0.34323,-0.33209 -0.67938,-0.67225 -1.05844,-0.96141c-0.08445,-0.06442 -0.31631,-0.10754 -0.31866,-0.00136c-0.00115,0.05213 -0.00071,0.10418 0.00111,0.15615c0.12908,0.05756 0.20676,0.10936 0.20676,0.10936zM166.95767,312.90618c0.80918,1.77456 1.65828,3.53329 2.37843,5.3458c1.42124,3.57712 2.72524,7.61123 3.30665,11.43425c0.07542,0.49593 0.24351,5.24536 0.30916,5.84932c0.36987,3.40255 0.90021,6.6515 1.11183,10.05275c1.78757,0.43823 3.5658,0.87757 5.41476,0.84446c2.90426,-0.03273 6.16974,0.30117 9.18752,0.12557c-0.79393,-2.4993 -0.63445,-4.72381 -0.63445,-7.35243c0,-1.70536 -0.05496,-3.11776 0.14317,-4.58752c-0.03129,-0.06488 -0.0579,-0.13244 -0.07937,-0.20226l-0.46161,-1.38482c-2.99525,-2.19961 -4.35886,-5.11264 -6.7488,-7.91284c-2.8706,-3.36337 -6.31563,-6.41616 -9.37552,-9.61932c-1.89073,-1.97925 -3.69442,-3.76297 -5.75928,-5.51334c0.59796,0.8611 0.77091,1.96289 1.2075,2.92036zM194.32862,320.18886c0.26475,0.80779 -0.00006,1.77216 0.40935,2.51715c0.27627,0.50272 1.02853,0.52947 1.46772,0.89846c1.38684,1.16516 2.9343,2.28932 3.80916,3.87537c0.40722,0.73827 0.31047,1.67164 0.6438,2.44607c0.26814,0.623 0.83527,1.08024 1.1357,1.68834c0.23535,0.47637 0.10967,1.12299 0.45342,1.52815c0.62495,0.73659 1.70036,0.99634 2.31835,1.73877c0.34529,0.41482 0.28579,1.04094 0.4287,1.56141l1.17239,0.22955c0,0 0.24333,0.08111 0.49112,0.27746c2.32467,-2.46212 4.37939,-5.18378 6.13798,-7.89953c-1.43917,-1.30415 -2.87665,-2.64904 -4.41825,-3.71099c-2.15736,-1.48613 -4.91812,-2.46085 -7.21494,-3.74475c-1.97979,-1.10669 -4.51803,-2.31528 -6.86883,-2.39505c-0.14341,-0.00486 -0.27219,-0.00269 -0.38767,0.00601c0.16297,0.31874 0.31062,0.64375 0.422,0.98357zM232.43449,454.65206c0.95723,6.44501 1.29599,13.00878 1.36863,19.53075c3.16266,-0.0254 6.32619,-0.00914 9.50025,-0.2783c1.77456,-0.15048 3.56119,-0.13602 5.33412,-0.30466c0.17598,-0.01673 0.34541,-0.20072 0.375,-0.375c0.23259,-1.37005 -0.11029,-3.25263 -0.11029,-4.6618c0,-1.69958 0.11636,-3.40283 0.00477,-5.09874c-0.23586,-3.58467 -1.73204,-6.86363 -2.31031,-10.35782c-0.26282,-1.58808 -0.01282,-3.21935 -0.01282,-4.82903c0,-3.07332 0.05695,-6.16286 0.1042,-9.25532c-2.93532,0.04206 -5.90531,0.14988 -8.81486,-0.08424c-2.48258,-0.19977 -4.59725,-0.71152 -7.07745,-0.70355c-0.72408,-0.05172 -1.44847,-0.09322 -2.17311,-0.12598c0.26172,5.58314 2.99533,11.04598 3.81187,16.54369zM161.19701,463.30037c-1.21514,-5.3282 -2.5763,-10.63509 -3.84347,-15.95243c-0.43579,-1.8287 -0.93592,-3.52813 -1.12336,-5.34651c-0.8445,0.09929 -1.69142,0.19552 -2.5417,0.28603c-7.95895,0.84726 -16.11301,-0.57465 -24.07581,-0.57465c0,0 -0.44803,0 -0.84583,-0.24913c-1.27495,0.38233 -2.5961,0.48245 -4.18877,0.65091c-2.09154,0.22123 -4.14773,0.25477 -6.2083,0.24118c-0.1505,0.40719 -0.5046,0.88623 -1.33772,0.88623c-0.85564,0 -1.20602,-0.50527 -1.34949,-0.91907c-0.76135,-0.01031 -1.52562,-0.01875 -2.2948,-0.01836c-10.33059,0.00529 -20.85699,0.67929 -31.11806,1.85308c-3.89438,0.44468 -7.78235,0.7407 -11.70122,0.82945l-0.02889,0.00015c-0.35665,0.46824 -0.96587,0.56977 -0.96587,0.56977c-0.35452,0.05902 -0.7091,0.11655 -1.06373,0.17268c0.70604,0.38239 0.70604,1.27962 0.70604,1.27962c0,12.47931 0,24.95862 0,37.43794c0.51022,0.01965 1.01605,0.03739 1.51448,0.05541c10.0673,0.36386 20.33757,-1.66054 30.28451,-2.95309c17.25295,-2.2419 34.516,-4.31747 51.79927,-6.3117c0,0 1.43942,-0.16608 1.6055,1.27333c0.01628,0.14106 0.01714,0.26988 0.00543,0.38752l1.44863,0.18014c0,0 0.1644,0.02055 0.37507,0.10334c0.38228,-0.21513 0.78856,-0.21513 0.78856,-0.21513h2.31834c1.054,-0.00001 2.10801,-0.00003 3.16201,-0.00003c-0.0454,-4.60208 -0.2644,-9.03442 -1.32082,-13.66666zM66.31808,447.00931c0,0 0,-0.57663 0.36377,-1.00238c-6.96299,1.0118 -13.94696,1.5416 -20.96225,2.26703c-8.10287,0.8379 -16.3431,2.1253 -24.48991,2.13265c-4.86706,-0.00035 -9.75152,-0.3479 -14.60918,-0.79315v0.29377c0,0 0,1.44897 -1.44897,1.44897c-1.44897,0 -1.44897,-1.44897 -1.44897,-1.44897c0,-0.18953 0,-0.37933 0,-0.56937c-0.08841,-0.00865 -0.17681,-0.01732 -0.26519,-0.02601c-0.361,1.04681 -1.5456,0.88886 -1.5456,0.88886c-6.69875,-0.89317 -13.23327,-3.05419 -19.98638,-3.42159c0.48725,4.11126 0.3524,8.25076 0.35241,12.40153c0.00001,6.10863 0,12.21724 0,18.32586c1.64637,0.02516 3.29308,0.04015 4.94036,0.04015c13.31385,0 26.86134,-0.67456 40.13436,0.58664c5.35373,0.50871 10.57249,1.70933 15.79843,2.91579c3.82276,0.37831 7.72683,0.57239 11.52367,1.15173c2.72284,0.41547 5.37064,1.32701 8.09391,1.73572c1.15075,0.17271 2.34668,0.28543 3.54955,0.36568c0,-12.06981 0,-25.43344 0,-37.29293zM-50.7587,440.05424c0,-7.87436 0.39228,-15.85737 -0.00106,-23.71948c-0.13725,-2.7435 -0.57645,-5.40188 -0.57853,-8.15787c0,0 0,-0.47083 0.26839,-0.87571c-2.51624,-0.44559 -5.04564,-0.7876 -7.55343,-0.58846c-3.46718,0.27534 -6.66128,1.47079 -10.08874,1.70497c0,1.8869 0,3.77378 -0.00001,5.66067c0.04483,9.54577 -0.23272,19.42398 0.95322,28.9804c0.39964,-0.05653 0.8007,-0.11236 1.20469,-0.16217c3.35349,-0.84151 6.92629,-1.6117 10.36267,-1.94954c1.78504,-0.1755 3.60184,-0.23601 5.43279,-0.22448zM-47.86545,416.18997c0.39578,7.91075 0.00469,15.94137 0.00469,23.86428v0.74008c3.83163,0.15704 7.68427,0.52843 11.39883,0.72717c5.66339,0.30301 11.33477,0.48946 16.99961,0.7727c0,0 1.44716,0.07235 1.3748,1.51952c-0.00109,0.02171 -0.00248,0.04307 -0.00417,0.06411c6.25215,0.32534 12.29478,2.14488 18.46334,3.16233c0.21537,-0.5953 0.6855,-0.79495 1.05784,-0.85535c0.09289,-0.01869 0.18899,-0.0285 0.28739,-0.0285c0.0922,0 0.1824,0.00861 0.26982,0.02507l1.03354,0.17531c0.23401,0.02363 0.46812,0.04715 0.70232,0.07055c0,-11.77303 0,-24.33217 0,-35.932c0,0 0,-0.19354 0.07073,-0.43916c-8.42605,0.36605 -16.8299,-0.6332 -25.20923,-1.13512c-0.17595,0.07781 -0.39081,0.12531 -0.65317,0.12531c-0.34514,0 -0.60807,-0.08221 -0.80836,-0.20746c-0.77383,-0.04045 -1.54746,-0.07572 -2.32088,-0.10435c-3.59617,-0.13414 -7.15872,-0.27711 -10.75799,-0.27711c-2.67003,0 -5.64007,0.28055 -8.29127,-0.01085c-1.40517,-0.15445 -2.82495,-0.40501 -4.25291,-0.67044c0.05998,0.2265 0.06015,0.39987 0.06015,0.40085c-0.00216,2.70773 0.43997,5.31617 0.5749,8.01307zM48.35086,403.54019v0.05328c0.12224,0.01471 0.2449,0.02655 0.36804,0.03503c2.25128,0.15504 4.81932,-1.00909 7.12127,-1.13128c8.46958,-0.44959 16.9911,-0.41534 25.47349,-0.41534c1.43807,0 2.87612,0 4.31419,0c-0.80845,-6.05001 -2.72724,-11.94467 -3.20059,-18.07332c-0.32842,-4.26463 -0.13705,-9.05416 -1.65499,-13.07166c-0.34458,-0.912 -0.75749,-1.80162 -1.02671,-2.73862c-0.09652,-0.33596 0.21044,-0.82654 -0.06092,-1.04687c-0.24132,-0.19594 -0.58235,0.24135 -0.89154,0.2735c-1.34512,0.13987 -2.70474,0 -4.05712,0c-2.61849,0 -5.37445,-0.19588 -7.9859,-0.0057c-2.51939,0.18349 -5.11979,0.93856 -7.60757,1.36951c-2.81887,0.48829 -5.68934,1.14735 -8.52135,1.51725c-0.66316,0.08662 -1.414,-0.24638 -2.00528,0.06613c-0.26036,0.13761 0.21894,0.54675 0.32842,0.82013c0,3.92944 -0.29397,7.96665 0.54145,11.8411c0.39024,1.80979 1.93574,3.95235 0.8689,5.88558c-0.16041,0.29066 -1.02184,0.42904 -2.0038,0.49252c0,1.81164 0,3.62328 0,5.43491c0,2.70474 0,5.98908 0,8.69382zM45.45291,389.45215c-0.11744,-0.00166 -0.21132,-0.00287 -0.27594,-0.00287c-3.62393,0 -7.18302,-0.01945 -10.77466,0.55998c-3.42519,0.55258 -6.90704,1.55234 -10.13658,2.81574c-2.39407,0.93657 -5.23531,3.19175 -7.75733,3.54559c-1.21299,0.17018 -2.43585,-0.26044 -3.65377,-0.39067c-0.53996,-4.99069 -0.17502,-9.89726 -0.42545,-14.89088c-0.18247,-3.63834 -0.88523,-7.20555 -1.49495,-10.78107c-0.427,0.48548 -1.126,0.48548 -1.126,0.48548h-1.73877c-4.17041,0 -8.46451,-0.2865 -12.62509,-0.00548c-3.5065,0.23684 -6.93545,1.48933 -10.45571,1.7406c-1.84681,0.13182 -3.7274,0.13146 -5.6088,0.09879c0,11.14737 0,22.29474 0,33.44211c8.4261,0.53452 16.87429,1.51799 25.34803,1.03771c2.82955,-0.16038 5.61871,-0.84917 8.39704,-1.35872c5.77294,-1.05876 11.46364,-2.07277 17.31059,-2.60025c4.49209,-0.40525 9.04775,-1.01872 13.56249,-0.49473c0.49049,0.05693 0.97394,0.16052 1.4549,0.27992c0,-2.44124 0,-5.18754 0,-7.50744c0,-1.87432 0,-3.93741 0,-5.97382zM-6.71223,351.29715c0.31901,5.16563 2.30595,9.97293 2.32057,15.14942v1.42742c4.11273,-0.24931 8.34688,0.02155 12.46114,0.02155h1.73877c0,0 0.39095,0 0.76671,0.20307c-0.19233,-1.26317 -0.35739,-2.52941 -0.4683,-3.80219c-0.25132,-2.88405 -0.0484,-5.77369 -0.32384,-8.66928c-0.31579,-3.31959 0.01131,-6.6025 -1.51974,-9.59968c-0.33049,-0.64697 -0.37526,-1.48675 -0.907,-1.98178c-0.25136,-0.23401 -0.66893,0.17136 -1.01149,0.19574c-0.57812,0.04114 -1.15918,0 -1.73877,0c-3.73936,0 -7.57023,-0.16482 -11.39267,-0.18152c0.20228,2.38152 -0.07711,4.78009 0.07464,7.23726zM124.27293,439.23274c1.94024,-0.20566 3.75181,-0.13759 5.27032,-1.30717c0,0 1.17907,-0.8422 2.02127,0.33688c0.14802,0.20723 0.2336,0.40405 0.27413,0.58772c7.16745,0.21687 14.48565,1.33339 21.61081,0.54921c7.04318,-0.77516 13.86559,-1.87677 20.97856,-1.93688c2.32274,0.00911 4.11662,-0.57956 6.40945,-1.03037c2.9069,-0.57154 5.84532,-0.91255 8.79609,-1.11957c2.74026,-0.19225 5.49529,-0.44268 8.25102,-0.55722c0,-1.53725 0,-3.25524 0,-4.71191c-3.01381,0.01007 -6.02793,0.00529 -9.03828,-0.07293c-1.45423,-0.03778 -5.74179,-0.08692 -6.80956,-1.01512c-0.40266,-0.35004 -0.4918,-5.01591 -0.58226,-5.46915c-0.19219,-0.96297 -0.77056,-1.82715 -0.92497,-2.79689c-0.32684,-2.05272 0.04092,-4.46233 -0.0181,-6.56559c-0.09185,-3.27303 -0.9085,-6.5186 -1.15608,-9.79146c-0.06214,-0.82145 -0.10257,-1.6343 -0.13976,-2.4436c-0.67223,0 -2.01199,0 -2.46307,0c-1.76464,-0.00177 -3.32113,0.37055 -5.03925,0.56873c-4.09405,0.47223 -8.32768,-0.18837 -12.42207,0.19911c-1.53554,0.14532 -3.00321,0.72057 -4.52803,0.95284c-2.50517,0.3816 -5.01337,0.08361 -7.52428,0.21117c-3.41148,0.1733 -6.80053,0.57254 -10.21823,0.57961c-0.12675,1.27763 -0.54949,2.48308 -1.82531,3.37954c-0.51005,0.35839 -4.41357,0.15373 -5.28799,0.21218c-2.4956,0.16685 -4.9917,0.85057 -7.4747,1.15334c-1.31137,0.1599 -2.6301,0.28432 -3.95162,0.39223c0,9.97522 0,19.95043 0,29.92565c1.92149,0.01188 3.84034,-0.02348 5.79191,-0.23035z"/><path d="M252.76575,482.25752c-0.4427,-0.35156 -1.13908,-0.20304 -1.62101,-0.49852c-1.52924,-0.93759 -2.91724,-2.74093 -4.42053,-3.79714c-2.33755,-5.56169 -3.54848,-11.45156 -4.76971,-17.33706c-0.53185,-2.56317 -1.42405,-5.07302 -1.90187,-7.6367c-0.1415,-0.75917 -0.2717,-1.52108 -0.39149,-2.28541c-0.54752,0.04569 -1.09835,0.07413 -1.65574,0.07555h-0.19319c0,0 -1.44896,0 -1.44896,-1.44897c0,-1.44896 1.44896,-1.44897 1.44896,-1.44897h0.19319c0.4217,0.00125 0.83932,-0.01623 1.2545,-0.04656c-1.1966,-9.67085 -0.9284,-19.65993 -0.97373,-29.31984c-0.00001,-8.69496 -0.00001,-17.38991 -0.00001,-26.08487c0,-1.78636 -0.19079,-3.5837 0.00705,-5.35907c0.17964,-1.61208 0.84691,-3.13385 1.17039,-4.72332c0.15759,-0.77425 -0.25106,-1.74999 0.25523,-2.35659c1.16205,-1.39223 3.13905,-1.17473 4.65299,-1.18133c1.53238,-0.00669 3.06488,-0.00521 4.59737,-0.00305c0.41463,-0.57654 1.1985,-0.57654 1.1985,-0.57654c7.34145,0 14.68289,0 22.02435,0c2.78486,0 5.07285,0.06444 7.79955,0.74612c0.55119,0.13779 1.12028,0.22083 1.6509,0.42392c0.21104,0.08077 0.51974,0.63884 0.53714,0.41354c0.04931,-0.63838 -0.36766,-1.2356 -0.42439,-1.87337c-0.2193,-2.46549 0,-5.05533 0,-7.53464c0,-4.8299 0,-9.6598 0,-14.4897c0,-0.82438 -0.027,-4.35653 0.1368,-4.67171c1.33497,-2.56861 4.7772,-3.75698 7.2497,-4.39192c3.40539,-0.8745 6.9833,-1.20288 10.60299,-1.29043c0.08156,-0.37319 0.32711,-0.77336 0.95466,-0.98254c1.37462,-0.4582 1.83282,0.91642 1.83282,0.91642c0.00444,0.01373 0.00886,0.02745 0.01323,0.04119c4.03523,0.01798 8.08048,0.23622 11.95654,0.23622c0.65595,0 3.87475,-0.04586 4.20481,0.19574c2.09172,1.53117 3.26717,5.66258 3.50991,8.03117c0.49198,4.80064 0.25553,9.68224 0.67313,14.47445c0.32098,3.68354 1.29315,7.34878 1.7439,11.02587c0.45956,3.74899 0.58971,7.41963 0.59064,11.19043c0.00065,2.62128 0.15599,5.10769 -0.4244,7.66964c2.82443,-1.12255 5.46504,-2.69229 8.2949,-3.80012c4.39787,-1.72168 9.00475,-2.79082 13.68631,-3.3109c2.77699,-0.30851 5.49948,-0.26842 8.29197,-0.26842c0.09183,0 0.18382,-0.00194 0.27594,-0.00513c0,-0.52852 0,-1.04753 0,-1.55283c0,0 0,-1.26604 1.18343,-1.43127c-0.84397,-4.06587 -0.58998,-8.24845 -0.58998,-12.36986c0.10947,-0.8858 -0.32501,-2.04939 0.32842,-2.65738c0.54554,-0.50762 5.52734,-1.4569 6.54229,-1.64319c4.41986,-0.81128 9.09991,-2.02584 13.57632,-2.35897c2.6949,-0.20054 5.53911,-0.0057 8.24258,-0.0057c1.26823,0 5.59653,-0.49466 6.6431,0.2735c0.34888,0.25607 2.01685,4.87781 2.10661,5.11889c1.60789,4.31824 1.47879,9.29395 1.83095,13.86668c0.48474,6.31361 2.61588,12.27644 3.37591,18.52339c0.33152,0.19422 0.63874,0.5542 0.63874,1.22139c0,0.5677 -0.22244,0.91299 -0.49299,1.12298c0.03728,1.55216 0.09453,3.97452 0.09749,4.19507c0.00785,0.58507 0.14224,1.18775 0.00009,1.75533c-0.06645,0.2653 -0.82576,0.70419 -0.58404,0.57626c0.53947,-0.28551 0.93498,-0.81403 1.49443,-1.05808c2.60751,-1.13746 5.48695,-1.16781 8.31033,-1.32774c-0.48519,1.81636 -1.03593,3.61294 -1.68488,5.3795c-0.92924,2.52959 -3.97807,3.76146 -5.28427,6.11863c-1.36071,2.45555 -1.87272,5.30206 -2.5536,8.0256c-1.24004,4.96016 -0.43293,10.07091 0.0512,15.17484c-2.14713,0.19895 -4.28697,0.42093 -6.41538,0.66441c-3.89437,0.44468 -7.78235,0.7407 -11.70122,0.82945l-0.02891,0.00015c-0.35666,0.46824 -0.96587,0.56978 -0.96587,0.56978c-0.35452,0.05902 -0.70911,0.11655 -1.06373,0.17268c0.70604,0.38239 0.70604,1.27963 0.70604,1.27963c0,3.57118 0,7.14237 0,10.71355c-0.9659,0.02064 -1.93187,0.03904 -2.89791,0.05585c0,-3.67233 0,-7.28577 0,-10.76944h-0.00002c0,0 0,-0.57664 0.36377,-1.00237c-6.96299,1.0118 -13.94696,1.5416 -20.96225,2.26704c-8.10287,0.8379 -16.34309,2.1253 -24.48991,2.13265c-4.86705,-0.00035 -9.7515,-0.34789 -14.60918,-0.79316v0.29377c0,0 0,1.44896 -1.44896,1.44896c-1.44897,0 -1.44897,-1.44896 -1.44897,-1.44896c0,-0.18953 0,-0.37933 0,-0.56938c-0.08841,-0.00865 -0.1768,-0.01732 -0.26519,-0.02601c-0.361,1.04679 -1.5456,0.88887 -1.5456,0.88887c-6.69874,-0.89317 -13.23327,-3.05419 -19.98637,-3.42159c0.48724,4.11126 0.3524,8.25075 0.35241,12.40153c0.00001,3.50117 0,7.00233 0,10.50349c-5.86939,2.0779 -10.71459,3.91337 -12.47574,4.3072c-9.54352,2.13419 -16.13295,-2.25312 -24.88476,2.9184c-0.62632,0.3701 -1.22733,0.76206 -1.80302,1.17412c-0.07187,-0.09501 -0.15208,-0.1815 -0.24473,-0.25509zM262.03073,420.61871c0.39578,7.91074 0.00469,15.94137 0.00469,23.86428v0.74007c3.83163,0.15704 7.68427,0.52843 11.39883,0.72717c5.66339,0.30301 11.33477,0.48946 16.99961,0.7727c0,0 1.44716,0.07235 1.3748,1.51952c-0.00109,0.02171 -0.00248,0.04308 -0.00417,0.06411c6.25215,0.32534 12.29478,2.14488 18.46334,3.16233c0.21537,-0.59531 0.6855,-0.79494 1.05784,-0.85534c0.09289,-0.01869 0.189,-0.0285 0.28739,-0.0285c0.0922,0 0.18239,0.00861 0.26981,0.02507l1.03353,0.17531c0.23401,0.02363 0.46812,0.04715 0.70232,0.07055c0,-11.77303 0,-24.33217 0,-35.932c0,0 0,-0.19354 0.07073,-0.43916c-8.42606,0.36605 -16.8299,-0.6332 -25.20923,-1.13512c-0.17595,0.07781 -0.39081,0.12532 -0.65317,0.12532c-0.34514,0 -0.60807,-0.08221 -0.80836,-0.20746c-0.77383,-0.04044 -1.54747,-0.07572 -2.32088,-0.10435c-3.59616,-0.13414 -7.15872,-0.27711 -10.75799,-0.27711c-2.67003,0 -5.64007,0.28055 -8.29127,-0.01085c-1.40517,-0.15445 -2.82496,-0.40502 -4.2529,-0.67046c0.05998,0.2265 0.06015,0.39987 0.06015,0.40085c-0.00216,2.70773 0.43997,5.31617 0.57489,8.01307zM355.3491,393.88089c-0.11744,-0.00166 -0.21131,-0.00287 -0.27594,-0.00287c-3.62393,0 -7.18302,-0.01945 -10.77466,0.55998c-3.42519,0.55258 -6.90704,1.55234 -10.13658,2.81574c-2.39407,0.93657 -5.23531,3.19175 -7.75733,3.54559c-1.21299,0.17018 -2.43585,-0.26044 -3.65377,-0.39067c-0.53995,-4.99069 -0.17502,-9.89725 -0.42545,-14.89088c-0.18247,-3.63836 -0.88523,-7.20555 -1.49495,-10.78107c-0.427,0.48549 -1.126,0.48549 -1.126,0.48549h-1.73876c-4.17041,0 -8.46451,-0.2865 -12.62509,-0.00548c-3.5065,0.23684 -6.93544,1.48935 -10.45571,1.7406c-1.84681,0.13181 -3.72741,0.13146 -5.60881,0.09878c0,11.14737 0,22.29474 0,33.44211c8.4261,0.53452 16.87429,1.51799 25.34803,1.03771c2.82955,-0.16037 5.61871,-0.84917 8.39704,-1.35872c5.77294,-1.05876 11.46364,-2.07277 17.31059,-2.60025c4.49209,-0.40525 9.04775,-1.01872 13.56249,-0.49473c0.49049,0.05692 0.97394,0.16052 1.4549,0.2799c0,-2.44124 0,-5.18754 0,-7.50744c0,-1.87432 0,-3.93741 0,-5.97382zM358.24703,407.96894v0.05329c0.12224,0.01471 0.2449,0.02655 0.36804,0.03503c2.25128,0.15504 4.81932,-1.00909 7.12128,-1.13128c8.46957,-0.44959 16.9911,-0.41534 25.47349,-0.41534c1.43807,0 2.87612,0 4.31419,0c-0.80845,-6.05002 -2.72724,-11.94467 -3.20059,-18.07332c-0.32843,-4.26464 -0.13705,-9.05416 -1.65499,-13.07166c-0.34458,-0.912 -0.75751,-1.80162 -1.02671,-2.73862c-0.09652,-0.33596 0.21044,-0.82653 -0.06092,-1.04687c-0.24132,-0.19594 -0.58235,0.24135 -0.89154,0.2735c-1.34512,0.13987 -2.70474,0 -4.05712,0c-2.61849,0 -5.37445,-0.19588 -7.9859,-0.0057c-2.5194,0.18349 -5.11979,0.93857 -7.60757,1.36951c-2.81888,0.4883 -5.68935,1.14735 -8.52135,1.51725c-0.66315,0.08662 -1.41399,-0.24638 -2.00528,0.06613c-0.26036,0.1376 0.21895,0.54675 0.32842,0.82014c0,3.92944 -0.29398,7.96664 0.54145,11.8411c0.39022,1.80979 1.93574,3.95235 0.8689,5.88558c-0.1604,0.29066 -1.02184,0.42904 -2.0038,0.49252c0,1.81164 0,3.62327 0,5.43491c0,2.70474 0,5.98908 0,8.69382zM259.13747,444.48299c0,-7.87436 0.39228,-15.85737 -0.00107,-23.71948c-0.13725,-2.74351 -0.57645,-5.40188 -0.57852,-8.15787c0,0 0,-0.47083 0.26839,-0.87571c-2.51624,-0.44559 -5.04566,-0.78761 -7.55343,-0.58846c-3.46718,0.27534 -6.66128,1.47079 -10.08873,1.70498c0,1.8869 0,3.77378 -0.00001,5.66066c0.04483,9.54577 -0.23272,19.42399 0.95322,28.98042c0.39964,-0.05653 0.8007,-0.11236 1.20471,-0.16217c3.35348,-0.8415 6.92628,-1.6117 10.36267,-1.94954c1.78504,-0.17549 3.60184,-0.23601 5.43279,-0.22448zM303.18395,355.72589c0.31902,5.16563 2.30593,9.97293 2.32057,15.14942v1.42742c4.11274,-0.24931 8.34689,0.02155 12.46114,0.02155h1.73876c0,0 0.39095,0 0.76671,0.20307c-0.19232,-1.26317 -0.35739,-2.5294 -0.4683,-3.80219c-0.25132,-2.88405 -0.0484,-5.77371 -0.32385,-8.66928c-0.31579,-3.31959 0.01131,-6.6025 -1.51974,-9.59968c-0.33049,-0.64697 -0.37527,-1.48676 -0.907,-1.98178c-0.25136,-0.23401 -0.66893,0.17136 -1.01149,0.19574c-0.57814,0.04114 -1.15918,0 -1.73876,0c-3.73936,0 -7.57021,-0.16482 -11.39267,-0.18153c0.20228,2.38152 -0.07711,4.78009 0.07464,7.23726z"/></g><path d="M445.59089,133.68104v104.35791h-610.84165v-104.35791z" fill="url(#color-1)" stroke="none" stroke-width="0"/><path d="M472.02823,59.23907v77.22486h-530.83392v-77.22486z" fill="#000000" stroke="none" stroke-width="0"/><path d="M-85.59089,476.33791v-104.35791h610.84165v104.35791z" fill="url(#color-2)" stroke="none" stroke-width="0"/><path d="M-112.02823,550.77989v-77.22486h530.83392v77.22486z" fill="#000000" stroke="none" stroke-width="0"/><path d="M-44.50187,53.63699v-39.06973h434.85254v39.06974z" fill="url(#color-3)" stroke="#000000" stroke-width="0.5"/></g></g></svg>